<svg id="Layer_1" data-name="Layer 1" xmlns="http://www.w3.org/2000/svg" viewBox="0 0 614.65 86.56"><defs><style>.cls-1{fill:#c5c0af}</style></defs><path class="cls-1" d="M448.45 71.69c-1.52 2.26-2.85 4.49-4.42 6.52-4.92 6.34-16 10.05-23.65 7.56-7.44-2.43-11.25-8.38-12.43-15.66-2.23-13.74 2.95-24.89 13.25-33.86a15.43 15.43 0 0 1 3.31-2.06c1.15-.59 2.4-1 3.55-1.46a82.78 82.78 0 0 1-2.37-8.33 20 20 0 0 1 3.22-15.16 14.61 14.61 0 0 1 19-5 11.31 11.31 0 0 1 4.17 16.38c-1.88 2.8-4.89 4.89-7.53 7.13a22 22 0 0 1-4.07 2.18l14.27 27.32c3.4-6.42 6.74-12.28 9.63-18.35 1.57-3.29.15-5.57-3.46-6.23-2.56-.47-5.19-.51-7.78-.76-.74-.07-1.48-.17-2.22-.25v-.72h30.71c.06.16.11.32.16.49a11.05 11.05 0 0 1-2 .53c-6.67.43-11.48 3.52-14.54 9.57-2.73 5.37-5.71 10.62-8.72 15.84a3.51 3.51 0 0 0 0 4c2.41 4.26 4.63 8.61 6.94 12.91 1.47 2.74 3.56 4.6 6.8 5 3.7.44 6.22-.83 7-4.5.86-4.29 1.06-8.71 1.53-13.07a17.91 17.91 0 0 1 .06-1.95 8.26 8.26 0 0 1 .81-1.7c.3.54.87 1.1.86 1.64-.13 4.15-.36 8.3-.57 12.46 0 .4-.11.81-.16 1.21-.85 7-3.75 10.63-9.75 12.24-7.16 1.93-12.33.36-16.42-5.31-1.89-2.69-3.38-5.61-5.18-8.61zM429.33 34c-6 1.36-9.66 4.85-11.23 10.41-3.36 11.84-.66 22.42 7.17 31.72 6.78 8.06 12.94 7.72 19-.84a6.49 6.49 0 0 1 .41-.61c2.8-3.08 3.32-6.27.57-9.71a14.85 14.85 0 0 1-1.25-2.4zM440 28.66c7.51-3.27 11.39-14.2 7.71-21.12A6.22 6.22 0 0 0 440.84 4a9 9 0 0 0-7 12.88c1.86 3.92 4.03 7.75 6.16 11.78zM218.74 6V3.19h18.94V6c-4.23 1.14-4.7 1.75-4.7 6.21v19.57c0 3.25 1.38 4.65 4.59 4.68h10.77c3.07 0 4.51-1.42 4.53-4.5q.07-10.51 0-21c0-3-1-3.92-4.76-4.91V3.19h18.95V6c-4.21 1.08-4.72 1.75-4.72 6.22 0 6.28-.07 12.56.07 18.84a5.21 5.21 0 0 0 1.47 3.27c2.73 2.72 2.89 4.9 0 7.39a4.17 4.17 0 0 0-1.57 3.56c.06 10.52 0 21 0 31.57 0 3.86.78 4.79 4.75 5.56v2.94h-18.87V82.5c4.27-1.27 4.7-1.85 4.7-6.31V45.12c0-4.21-1.17-5.37-5.38-5.38h-9.79c-3.27 0-4.72 1.34-4.72 4.75v32.3c0 3.88.77 4.81 4.73 5.58v2.93H218.8v-2.8c4.35-1.31 4.7-1.8 4.7-6.53 0-10.28.05-20.56-.06-30.83a5.19 5.19 0 0 0-1.44-3.29c-2.84-2.86-2.83-4.75.05-7.63a5.29 5.29 0 0 0 1.42-3.29c.13-6.28.07-12.56.06-18.85-.03-4.32-.59-5.08-4.79-6.08zM72.77 82.41v2.91h-19v-2.84c4.19-1.13 4.72-1.82 4.72-6.08V45.57a4.68 4.68 0 0 0-1.72-4c-2.78-2.37-2.73-4.66.13-7.13a4.17 4.17 0 0 0 1.59-3.55c-.09-6.2 0-12.4 0-18.6 0-4.53-.47-5.18-4.77-6.35V3.18h19V6C68.58 7 68 7.73 68 12v19.57c0 3.52 1.35 4.85 4.9 4.86h10c3.66 0 5-1.34 5-5.06V12.28c0-4.48-.48-5.13-4.78-6.35V3.17h19V6c-4.12 1-4.75 1.71-4.75 6v18.84a4.07 4.07 0 0 0 1.53 3.57c2.91 2.46 2.91 4.82 0 7.31a4.11 4.11 0 0 0-1.51 3.58v31.08c0 4.34.6 5.12 4.76 6.05v2.9h-19v-2.87c4.16-1.06 4.74-1.81 4.74-6.08V45.3c0-4.42-1.11-5.55-5.44-5.56h-10c-3.08 0-4.43 1.42-4.44 4.55v33.27c-.01 3.08.99 4.04 4.76 4.85zM354.4 82.28c4.6-.53 5.63-2.16 4.27-6.31q-10.26-31.35-20.53-62.69a1.55 1.55 0 0 0-.84-1c0 6.63-.05 13.27.06 19.9 0 .7.82 1.51 1.43 2.07 2.83 2.65 2.95 4.93.07 7.36a4.34 4.34 0 0 0-1.59 3.79c.05 10.36 0 20.72 0 31.08 0 4.72.85 5.57 5.51 5.62.72 0 1.43.07 2.24.12a10.73 10.73 0 0 1 .2 1.26c0 .56-.07 1.11-.12 1.8h-18.93v-3.15h3.87c2.58-.1 3.9-1.37 3.91-4V44.36a3.87 3.87 0 0 0-1.28-2.36c-3.11-3-3.1-4.78-.1-7.76a4.92 4.92 0 0 0 1.34-3.1c.12-6.6.06-13.21 0-19.82 0-3.95-1.09-5-5.12-5h-2.72V3.19h25.27V6c-4.76 1.07-5.43 2.3-3.88 7q10.1 30.89 20.2 61.76a12.73 12.73 0 0 0 .69 1.37c.08-1.09.16-1.66.16-2.24V45.26A4.13 4.13 0 0 0 367 41.7c-2.9-2.46-2.9-4.84 0-7.3a4.09 4.09 0 0 0 1.54-3.57c-.07-6.37 0-12.73 0-19.09 0-4.46-1-5.47-5.44-5.49h-2.36V3.17h19v3.08h-3.85c-2.61.12-4 1.39-4 4-.06 7.17-.07 14.35 0 21.53a4.36 4.36 0 0 0 1.44 2.57c2.84 2.74 2.81 4.68.08 7.45a5.68 5.68 0 0 0-1.52 3.51c-.11 10.44-.06 20.88-.06 31.32 0 4.68.82 5.49 5.57 5.54.72 0 1.43.08 2.25.12a11.79 11.79 0 0 1 .13 1.28c0 .55-.05 1.1-.09 1.78H354.4zM111.27 6V3.19h43.2v13h-3.17v-5.88c-.08-2.5-1.46-4-3.95-4.07-6-.08-11.91-.09-17.87 0a3.66 3.66 0 0 0-3.82 3.93q-.09 11.13 0 22.27a3.66 3.66 0 0 0 3.84 3.89c2.37.1 4.74.07 7.1 0 2.94 0 4.32-1.45 4.39-4.37v-3.07h3.15v18.99H141c0-1.4.05-2.77 0-4.13-.1-2.43-1.39-3.87-3.74-4-2.6-.11-5.22-.11-7.83 0a3.61 3.61 0 0 0-3.75 3.94q-.08 17.27 0 34.52a3.58 3.58 0 0 0 3.84 3.86q8.92.11 17.86 0c2.51 0 3.83-1.49 3.94-4v-5.82h3.22v13h-43.2v-2.77c4.37-1.16 4.72-1.62 4.72-6.28V45.36a4.36 4.36 0 0 0-1.64-3.78c-2.74-2.3-2.77-4.67-.07-7a4.59 4.59 0 0 0 1.71-4c-.09-6.2 0-12.4 0-18.6 0-4.32-.5-4.98-4.79-5.98zM291.89 3.15H311V5.9c-4.06 1.83-4.38 2.41-3.59 6.92 1.14 6.42 2.27 12.85 3.54 19.24a6.12 6.12 0 0 0 1.74 2.78 4.26 4.26 0 0 1 .84 5.53 4.84 4.84 0 0 0-.56 2.9c2 11.56 4.16 23.11 6.27 34.66.58 3.19 1.32 3.79 5.53 4.44v2.93h-18.9c-.44-1.59-.77-2.91 1.59-3.59 1.81-.53 2.57-2.25 2.22-4.16-2.19-12.11-4.39-24.22-6.69-36.32a2.3 2.3 0 0 0-1.65-1.42 56.39 56.39 0 0 0-7.58 0 2.65 2.65 0 0 0-1.91 1.53Q287.56 59 283.48 76.8c-.77 3.35.76 5.21 4.15 5.33l2.48.12v3h-19v-3.12h3.64c3.42 0 4.41-.83 5.21-4.21l7.46-31.91c.54-2.32 1.39-4.5.1-7-.47-.94.83-2.85 1.45-4.25.52-1.14 1.53-2.11 1.82-3.29 1.57-6.24 3-12.52 4.46-18.79.94-4.05.51-4.9-3.32-6.69zm6.49 12.22h-.5c-1.61 6.92-3.23 13.84-4.86 20.83h9.12c-1.28-7.1-2.52-13.96-3.76-20.83zM206.36 72.15h3.08v13.14h-43.07v-2.83c4.17-1 4.75-1.81 4.75-6.1 0-10.36 0-20.72-.07-31.08a5.57 5.57 0 0 0-1.54-3.5c-2.71-2.75-2.85-4.84.08-7.38a4.15 4.15 0 0 0 1.57-3.57c-.08-6.36 0-12.72 0-19.08 0-3.94-.74-4.85-4.68-5.7a12.89 12.89 0 0 1-.19-1.33c0-.47.06-.94.1-1.56h43v13.13h-3V10.8c-.08-3.06-1.48-4.51-4.53-4.54q-8.44-.07-16.88 0c-2.91 0-4.33 1.51-4.34 4.45q-.06 10.63 0 21.29c0 2.92 1.46 4.33 4.37 4.4h6.12c3.56 0 4.86-1.31 4.93-4.85v-2.6h3.09V48H196v-3.83c-.1-3-1.44-4.35-4.36-4.41-2.28 0-4.57-.06-6.85 0-2.69.07-4.18 1.44-4.19 4q-.08 17.13 0 34.26c0 2.61 1.51 4 4.18 4q8.69.09 17.38 0c2.65 0 4.05-1.43 4.17-4.09.1-1.77.03-3.64.03-5.78zM577.91 85.47c-3.84-.13-6.93-2.1-9.53-5a35.25 35.25 0 0 1-8.2-16.47c-1.45-6.74-2.09-13.65-3.2-20.47a6.54 6.54 0 0 0-1.5-3.3c-2.35-2.5-2.31-4.5 0-7a9.84 9.84 0 0 0 2-3.91c1.52-5.22 2.61-10.68 4.52-15.81a24.2 24.2 0 0 1 5.5-8c6.31-6.39 14.94-6.31 21.35 0 5.48 5.36 7.82 12.27 9.32 19.55.27 1.35.48 2.73.62 4.1a6.66 6.66 0 0 0 2.21 4.89 3.57 3.57 0 0 1-.09 5.6 5.1 5.1 0 0 0-1.64 4.08c-.33 9.35-1.59 18.58-5.52 27.13a53.07 53.07 0 0 1-7 10.74 11 11 0 0 1-8.84 3.87zM567 49.26c.3 3.57.5 7.15.91 10.71.69 5.92 1.5 11.83 4.27 17.22 3 5.77 7.54 6.49 11.8 1.59a35.68 35.68 0 0 0 5.4-8.63c4-8.81 5.34-18.24 5.59-27.84a4.16 4.16 0 0 0-1.22-2.42c-1.84-2.1-1.9-4-.11-6.1.47-.56 1.08-1.37 1-2-.91-7.68-2.7-15.11-7.47-21.42a19.32 19.32 0 0 0-4.79-4.45c-3.76-2.44-7.5-1.62-10 2.09a16.18 16.18 0 0 0-2.56 5.49c-1.09 5.41-1.8 10.9-2.7 16.35a3.71 3.71 0 0 0 1.34 3.84c2 1.69 2.19 4.26.33 5.78s-2 3.29-1.91 5.37c.12 1.48.12 2.96.12 4.42zM41.79 2.85l2.66 1.43c-2.08 4-4.11 7.93-6.23 12l-2.71-1.41a4.31 4.31 0 0 1 .17-.85c2.55-5.2 2.14-6.69-3.37-8.75A19 19 0 0 0 24 4c-5.74.61-9.89 7-9.23 13.58.7 7 5.05 11.68 10.53 15.39 1.05.71 2.84.36 4.28.4 3.54.08 4.84 1.44 4.94 4.88a3.81 3.81 0 0 0 1.29 2.32c5 4.59 8.92 9.83 9.84 16.72 1.28 9.47-2.52 17.11-9.65 23.05A20.52 20.52 0 0 1 14.47 84 19.72 19.72 0 0 1 2.93 59.56c.94-2.78.51-3.68-2.93-5.91l1.44-2.8 12 6.25c-.57 1-1 1.88-1.53 2.85-.61-.29-1.1-.56-1.61-.75-2.53-1-4.51.09-5.17 2.75C3.66 68.09 7 76.54 12.07 79.29a16.54 16.54 0 0 0 19.19-3c8.23-8.68 7.48-25.14-1.46-33a6.11 6.11 0 0 0-5-1.89 24 24 0 0 1-4.15 0c-2.48-.15-4.24-1.9-3.92-4.33.24-1.76-.47-2.63-1.63-3.67-4.75-4.26-8.28-9.25-8.43-15.94C6.37 6.43 17.56-2.37 28.12.57a38.89 38.89 0 0 1 7.23 2.87c3.12 1.63 3.65 1.73 6.44-.59zM549.88 7.56c.67.88 1.26 1.63 1.94 2.53l-15.23 11.69-2.05-2.52c1.1-.89 2.15-1.63 3.09-2.49a3.78 3.78 0 0 0 .53-5.46c-.14-.2-.3-.38-.46-.57-7.51-9-15.23-8-20 2.67-2.53 5.66-3.52 11.69-4 17.8a3.45 3.45 0 0 0 1.07 2.22c2.3 2.42 2.28 4.35 0 6.76a4.07 4.07 0 0 0-1.28 2.4c.11 9.5 1.07 18.9 4.23 27.92a33 33 0 0 0 3.8 7.61c3.2 4.69 7.19 5.29 11.33 1.38a38.11 38.11 0 0 0 7.09-9.22c2.24-4.1 3.69-8.64 5.6-13.3l3.77 1.17c-2.35 8.83-5.52 17-12.4 23.2-6.2 5.58-12.85 5.5-19.06-.11-5.68-5.14-9.11-11.76-11-19-1.59-6.11-2.25-12.47-3.43-18.7a6.93 6.93 0 0 0-1.51-3.32c-2.28-2.43-2.23-4.54.12-7a7.47 7.47 0 0 0 2-3.64c1.19-6.74 3.23-13.14 7.21-18.78 3.12-4.44 7-8 12.38-9.45 6.63-1.75 12 .89 16.63 5.36 4.41 4.36 4.37 4.4 9.63.85zM608.55 80.82a5.72 5.72 0 1 1 0-11.43c3.09 0 6.24 3 6.13 5.82s-3.12 5.6-6.13 5.61z"/></svg>