<svg data-name="Layer 1" xmlns="http://www.w3.org/2000/svg" viewBox="0 0 323.39 89.99"><path d="M97.05 50.44l10.71-19.32v-.15h-9a.71.71 0 0 1-.69-.68v-3a.71.71 0 0 1 .69-.68h15a.7.7 0 0 1 .68.68v.46l-10.53 19.6v.07h9.16a.69.69 0 0 1 .69.69v3a.68.68 0 0 1-.69.68H97.73a.71.71 0 0 1-.68-.68zM134.42 43.19l-3.56-7.91h-.11l-3.52 7.91zm-15.56 7.65l11.21-24.2a.65.65 0 0 1 .61-.39h.36a.61.61 0 0 1 .61.39l11.07 24.2a.63.63 0 0 1-.61.93h-3.13a1 1 0 0 1-1-.72l-1.76-3.88h-10.78l-1.76 3.88a1.09 1.09 0 0 1-1 .72h-3.13a.63.63 0 0 1-.61-.93M159.65 26.27a12.12 12.12 0 0 1 8.69 3.37.67.67 0 0 1 0 1l-2.2 2.27a.58.58 0 0 1-.89 0 8.52 8.52 0 0 0-5.54-2.12 8.34 8.34 0 0 0 0 16.66 8.65 8.65 0 0 0 5.5-2 .65.65 0 0 1 .89 0l2.23 2.3a.68.68 0 0 1 0 1 12.35 12.35 0 0 1-8.73 3.48 12.93 12.93 0 1 1 0-25.86M195.4 47.53a3.2 3.2 0 0 0 3.23-3.27c0-1.79-1.79-3.12-3.66-3.12h-3.92v6.39zm-.54-10.34a3.08 3.08 0 0 0 3.09-3.24 2.93 2.93 0 0 0-3.09-3.05h-3.85v6.29zm-8.48-9.88a.68.68 0 0 1 .68-.68h8.23c4.27 0 7.58 2.87 7.58 6.64 0 2.77-2.26 4.92-4 5.71 1.9.61 4.67 2.55 4.67 5.86 0 4-3.45 6.93-7.83 6.93h-8.7a.68.68 0 0 1-.68-.68zM221.86 38.09a3.66 3.66 0 0 0 3.55-3.67 3.57 3.57 0 0 0-3.55-3.48H216v7.15zm-10.57-10.78a.67.67 0 0 1 .68-.68h10.27a7.77 7.77 0 0 1 7.83 7.72 7.94 7.94 0 0 1-5.31 7.29l4.92 9.12a.68.68 0 0 1-.61 1h-3.77a.62.62 0 0 1-.58-.32l-4.78-9.52h-4v9.16a.71.71 0 0 1-.69.68h-3.3a.67.67 0 0 1-.68-.68zM249.01 47.46a8.26 8.26 0 1 0-8.22-8.23 8.28 8.28 0 0 0 8.22 8.23m0-21.19a12.93 12.93 0 1 1-12.89 13 12.91 12.91 0 0 1 12.89-13M265.65 27.49a.63.63 0 0 1 .65-.86h3.3a.74.74 0 0 1 .65.5l3.74 14.33h.14l5.73-14.82a.58.58 0 0 1 .61-.39h.65a.58.58 0 0 1 .61.39l5.75 14.8h.14l3.67-14.33a.72.72 0 0 1 .64-.5h3.31a.62.62 0 0 1 .64.86l-6.81 24.17a.68.68 0 0 1-.64.5h-.57a.61.61 0 0 1-.61-.39l-6.39-16.29h-.18l-6.41 16.28a.61.61 0 0 1-.61.39h-.57a.68.68 0 0 1-.65-.5zM302.16 26.91a.67.67 0 0 1 .68-.64h.9l14.95 15.87V27.31a.68.68 0 0 1 .68-.68h3.31a.7.7 0 0 1 .68.68v24.17a.67.67 0 0 1-.68.65h-.82l-15-16.49v15.45a.67.67 0 0 1-.68.68h-3.32a.7.7 0 0 1-.68-.68z" fill="#c5c0af"/><path d="M105.86 79.75a7.71 7.71 0 1 1 5.41-13.11l-1 1.07a6.15 6.15 0 0 0-10.6 4.39 6.15 6.15 0 0 0 10.64 4.34l1 1.07a7.65 7.65 0 0 1-5.45 2.24zM129.41 74.87V64.55h1.52v9.79c0 3.87-2.18 5.41-4.68 5.41s-4.69-1.54-4.69-5.41v-9.79h1.52v10.32a3.18 3.18 0 1 0 6.33 0zM141.25 76.54l1.44-.47a2.88 2.88 0 0 0 2.7 2.38c1.79 0 2.69-1.26 2.69-3 0-3.12-5.8-4.62-5.8-8a3.05 3.05 0 0 1 3.13-3.08 3.14 3.14 0 0 1 2.7 1.41l-1.25.86a1.77 1.77 0 0 0-1.45-1 1.65 1.65 0 0 0-1.65 1.75c0 2.38 5.82 4.11 5.82 8a4.23 4.23 0 0 1-8.33 1.07zM161.71 79.54V65.97h-3.43v-1.42h8.35v1.42h-3.42v13.57zM174.86 72.05a7.71 7.71 0 1 1 7.7 7.7 7.71 7.71 0 0 1-7.7-7.7zm13.91 0a6.21 6.21 0 1 0-6.21 6.29 6.1 6.1 0 0 0 6.21-6.29zM216.22 79.54h-1.58l-1.4-11.75c-.06-.43-.1-.86-.1-1 0 .13-.15.54-.28.92l-4.17 11.8h-1l-4.19-11.8a6.47 6.47 0 0 1-.3-.92c0 .09 0 .58-.09 1l-1.32 11.75h-1.58l2.05-15h1.6l4.13 11.37.21.75a6.48 6.48 0 0 1 .22-.75l4.17-11.37h1.59zM226.01 76.54l1.43-.47a2.89 2.89 0 0 0 2.7 2.38c1.8 0 2.7-1.26 2.7-3 0-3.12-5.8-4.62-5.8-8a3 3 0 0 1 3.12-3.08 3.14 3.14 0 0 1 2.7 1.41l-1.24.88a1.79 1.79 0 0 0-1.46-1 1.65 1.65 0 0 0-1.65 1.75c0 2.38 5.83 4.11 5.83 8a4.23 4.23 0 0 1-8.33 1.07zM62.61 89.99l-5-3.09.14-1.75-12.17-8.68-3.61-4.44-3.83 4.66-11.94 8.46.13 1.75-5 3.09-10.13-5-8.11-.13L0 81.02l2.65-4.38.5-.12c5.13-1.22 8.67-3.78 10.53-7.61 4-8.18-.66-19.89-1.56-22l-5.08-3v-7.48l-2.7-7.55 3.89-9 1-11.15L6.37 0l5.49.64.26.19c7.74 5.81 7.33 18.21 7.07 21.55l3.84 2.13 3.28-.73 6.67.88 2.6-1.7L42 20.64l6.64 2.5 2.35 1.5 6.67-.88 3.27.73 3.85-2.13c-.26-3.32-.66-15.72 7.08-21.51l.25-.21L77.59 0l-2.86 8.74 1 11.15 3.9 9-2.7 7.55v7.39l-5.07 3.01c-.91 2.13-5.54 13.84-1.57 22 1.86 3.83 5.41 6.39 10.53 7.61l.5.12L83.98 81l-3.12 3.86-8.11.13zm-2.43-4.35l2.57 1.6 9.41-4.65 7.52-.12L81 80.84l-1.25-2.09c-5.61-1.45-9.53-4.41-11.66-8.8-4.87-10 1.42-23.85 1.69-24.44l.16-.34 4.55-2.7v-6.46l2.52-7-3.67-8.47-1.08-12 1.83-5.58-1 .12c-7.38 5.87-5.8 19.78-5.78 19.92l.1.81-6.08 3.36-3.75-.83-7.15.94-3-2-5.4-2-5.44 2-3 2-7.15-.94-3.76.83-6.09-3.43.1-.82c0-.14 1.6-14-5.79-19.92l-1-.12 1.83 5.58-1.08 12-3.69 8.51 2.52 7v6.47l4.54 2.7.16.34c.27.59 6.57 14.41 1.7 24.44-2.13 4.39-6 7.35-11.66 8.8l-1.25 2.09 1.32 1.63 7.52.12 9.41 4.65 2.57-1.57-.13-1.65 12.94-9.16 5.36-6.64 5.41 6.64 12.93 9.16zm-2.62-23.5l-7.15-4.26-5.29-8.18 3.48-9.93 7.1-8.13 5.46-.68 3.64 5.68-1.65 10.59.84 8zm-5.41-6.07l5 3 4.33-4.62-.76-7.25 1.56-10-2.32-3.64-3 .38-6.18 7.12-2.92 8.32zm-25.93 6.07l-6.43-6.86.84-8-1.65-10.64 3.64-5.71 5.46.68 7.1 8.18 3.48 9.93-5.29 8.18zm-3.89-7.72l4.33 4.62 5-3 4.32-6.69-2.93-8.36-6.19-7.09-3-.38-2.31 3.64 1.55 10z" fill="#c5c0af"/></svg>