<svg id="Layer_1" data-name="Layer 1" xmlns="http://www.w3.org/2000/svg" viewBox="0 0 234.47 36.19"><defs><style>.cls-1{fill:#c5c0af;}</style></defs><title>demerbox-logo</title><path class="cls-1" d="M40.19,26.67h12V19.89h-12V17.28H56.87v-6.1H32.54v6.2c0,.06,3.34,0,3.34,0V28.93H32.54v7.14h51V28.93H40.19Z" transform="translate(0 0.12)"/><path class="cls-1" d="M30,7.69c0-.89-.05-1.68-.1-2.36s-.1-1.21-.13-1.55a3.45,3.45,0,0,0-.64-1.4,5.12,5.12,0,0,0-1.27-1.23A7,7,0,0,0,26.13.3a5.26,5.26,0,0,0-1.7-.3H0V8.17H4.37V27.68H0V36H24.43a5.26,5.26,0,0,0,1.7-.3,6.75,6.75,0,0,0,1.65-.84,5.89,5.89,0,0,0,1.29-1.25,3.26,3.26,0,0,0,.66-1.43,16.32,16.32,0,0,0,.2-2.55c0-1.25.07-2.6.11-4s.05-2.84.05-4.23V16.08c0-.8,0-1.68,0-2.61Zm-5.88,20H10.49V8.17H24.08Z" transform="translate(0 0.12)"/><path class="cls-1" d="M91.62,0a2,2,0,0,0-1.68.89L79.4,16.42a1,1,0,0,1-1.59,0L67.24,1A2.12,2.12,0,0,0,65.51.05L33.5,0h-1V8.17h29V20.9H58.23v6.23H70V20.9H66.5v-11l12,17.6a.15.15,0,0,0,.25,0l12-17.6v19h-3.5v7H98.63v-7h-3V8.17h3.27V0Z" transform="translate(0 0.12)"/><path class="cls-1" d="M182.21,23.68a5.44,5.44,0,0,0,1.25,1,4,4,0,0,0,1.5.51c.44.07,1,.13,1.59.17s1.3,0,2,.05,1.46,0,2.2,0h3.6c.69,0,2.27,0,3,0s1.06,0,1.77,0,1.37-.05,2-.09,1.17-.08,1.64-.13a3.67,3.67,0,0,0,1.5-.48,4.5,4.5,0,0,0,1.22-1,4.94,4.94,0,0,0,.84-1.29,3.39,3.39,0,0,0,.31-1.35V4.27a3.39,3.39,0,0,0-.31-1.35,4.68,4.68,0,0,0-.84-1.27,5.41,5.41,0,0,0-1.22-1,4.1,4.1,0,0,0-1.5-.54A14.38,14.38,0,0,0,201.15,0l-2-.08c-.71,0-1,0-1.77,0h-3c-1.42,0-4.3,0-5.78,0s-2.71.1-3.68.22a4.27,4.27,0,0,0-1.49.52,5,5,0,0,0-1.23,1,4.85,4.85,0,0,0-.83,1.28,3.23,3.23,0,0,0-.31,1.35V20.42a6.65,6.65,0,0,0,.31,2A4.49,4.49,0,0,0,182.21,23.68Zm4.6-15.51H200.9V18.29H186.81Z" transform="translate(0 0.12)"/><path class="cls-1" d="M153.59,28.9l-21.09,0h-.69v7.12h39.93a6.1,6.1,0,0,0,1.93-.44,7.39,7.39,0,0,0,1.86-.94A6.65,6.65,0,0,0,177,33.3a3.74,3.74,0,0,0,.72-1.59,32.11,32.11,0,0,0,.38-3.62,20.45,20.45,0,0,0,.08-2.09V10.35a20,20,0,0,0-.08-2c-.06-1.24-.19-3-.38-4.12a3.86,3.86,0,0,0-.73-1.62,6.2,6.2,0,0,0-1.41-1.39,7.76,7.76,0,0,0-1.86-.95,5.87,5.87,0,0,0-1.93-.34H146V8.17h7.56Zm18.18,0H160V21.58h11.74Zm0-13.76H160V8.17h11.74Z" transform="translate(0 0.12)"/><path class="cls-1" d="M227.3,28l-4.46-9.66a.85.85,0,0,1,0-.76L227.62,8a.84.84,0,0,1,.76-.47h6.09V-.12h-8.59a1.15,1.15,0,0,0-1,.63l-5.45,11L213.69-.12h-6.8l8.59,17.67a.85.85,0,0,1,0,.76l-5.12,9.2a1,1,0,0,1-.76.58H180.11v7.84H212.5a.86.86,0,0,0,.77-.47l6.21-11,5.38,10.83a1.13,1.13,0,0,0,1,.63h8.59V28.44h-6.41A.83.83,0,0,1,227.3,28Z" transform="translate(0 0.12)"/><polygon class="cls-1" points="108.1 26.79 116.47 26.79 116.47 26.79 116.47 20 108.1 20 108.1 20 108.1 17.39 119.66 17.39 119.66 17.39 119.66 11.29 99.06 11.29 99.06 17.39 103.79 17.39 103.79 20 103.79 26.79 103.79 29.05 101.86 29.05 101.85 29.05 101.85 36.19 125.47 36.19 128.43 36.19 128.43 29.05 108.1 29.05 108.1 26.79"/><path class="cls-1" d="M135.07,26.64h15.5V20.31H137.06a.69.69,0,0,1-.52-.24l-1.85-2.86h4.48a6.51,6.51,0,0,0,.77,0,4.7,4.7,0,0,0,1-.22,5.27,5.27,0,0,0,1.36-.69,4.75,4.75,0,0,0,1-1A2.85,2.85,0,0,0,143.9,14a14.44,14.44,0,0,0,.28-2.45c0-.86,0-1.87,0-3s0-2.16-.06-3a19.93,19.93,0,0,0-.26-2.42,2.6,2.6,0,0,0-.51-1.25,4.48,4.48,0,0,0-1.06-1A5.57,5.57,0,0,0,141,.16a4.55,4.55,0,0,0-1.46-.26H102.56V8.17h20.87V21.45h-3.27V26.7h8.27V17.21h.24l5.87,9.19A.69.69,0,0,0,135.07,26.64ZM128.43,12V8.17H139V12Z" transform="translate(0 0.12)"/></svg>