<svg id="Layer_1" data-name="Layer 1" xmlns="http://www.w3.org/2000/svg" viewBox="0 0 56.54 61.03"><title>logo</title><path d="M49.65,10.22,35.15,1.84a13.78,13.78,0,0,0-13.76,0L6.88,10.22A13.81,13.81,0,0,0,0,22.14V38.89A13.81,13.81,0,0,0,6.88,50.81l14.51,8.37a13.72,13.72,0,0,0,13.76,0l14.51-8.37a13.81,13.81,0,0,0,6.88-11.92V22.15A13.8,13.8,0,0,0,49.65,10.22ZM42.26,51.13a.45.45,0,0,1,.22.83L33.93,56.9a11.32,11.32,0,0,1-11.26,0L14.12,52a.44.44,0,0,1,.22-.83ZM54.07,31.57c-.09,3.24-1,5.69-2.56,7.29a7.19,7.19,0,0,1-4.6,2H30.49a.22.22,0,0,1-.13-.4L53.85,22.85a.14.14,0,0,1,.22.11ZM23.64,42.4a.55.55,0,0,0-.19.61.56.56,0,0,0,.52.38h23a9.77,9.77,0,0,0,6.33-2.73,10.24,10.24,0,0,0,.76-.85,11.56,11.56,0,0,1-3.47,7.11,5.84,5.84,0,0,1-4.06,1.62l-37.94.1h0a.63.63,0,0,1-.32-.1.61.61,0,0,1-.3-.5.62.62,0,0,1,.25-.53l10.29-7.92h0l32.3-24.87a.5.5,0,0,1,.7.07l.17.22a5.17,5.17,0,0,1-1.16,7.12ZM14.34,9.77a.44.44,0,0,1-.22-.83L22.67,4A11.25,11.25,0,0,1,33.93,4l8.55,4.93a.45.45,0,0,1-.22.83ZM2.53,29.33c.09-3.24,1-5.69,2.55-7.29a7.23,7.23,0,0,1,4.61-2H26.1a.22.22,0,0,1,.14.4L2.75,38.05a.14.14,0,0,1-.22-.11ZM33,18.51a.57.57,0,0,0,.19-.62.56.56,0,0,0-.52-.37h-23a9.66,9.66,0,0,0-6.33,2.73,8.72,8.72,0,0,0-.76.84A11.59,11.59,0,0,1,6.06,14a5.81,5.81,0,0,1,4.05-1.62l37.94-.1h0a.63.63,0,0,1,.32.1.61.61,0,0,1,.3.5.62.62,0,0,1-.25.53L38.14,21.32v0L5.84,46.17a.5.5,0,0,1-.7-.07L5,45.88a5.17,5.17,0,0,1,1.15-7.12Z" style="fill:#aa9142"/></svg>