<svg data-name="Layer 1" xmlns="http://www.w3.org/2000/svg" viewBox="0 0 122.66 107.49"><path fill="#aa9142" d="M35.23 98.92v8.45h4.22v-.84h-3.38v-7.61h-.84zM45.86 98.92v8.45h4.23v-.84H46.7v-7.61h-.84zM56.49 98.92v8.45H61v-.8h-3.67v-3.21h2.94v-.8h-2.94v-2.85H61v-.79h-4.51zM71.56 107.49a4.35 4.35 0 1 1 3.07-7.43l-.59.61a3.51 3.51 0 1 0-2.48 6 3.49 3.49 0 0 0 2.5-1.1l.59.61a4.3 4.3 0 0 1-3.09 1.29M80.26 98.92v.79h1.93v7.66h.85v-7.66h1.93v-.79h-4.71zM90.65 98.92v.72h1.02v7h-1.02v.73h2.88v-.73h-1.01v-7h1.01v-.72h-2.88zM101.82 107.37l-2.73-8.45h.91l2.07 6.76c.09.3.15.58.16.63a4 4 0 0 1 .14-.63l2.07-6.76h.92l-2.73 8.45zM111.52 98.92v8.45h4.51v-.8h-3.67v-3.21h2.94v-.8h-2.94v-2.85h3.67v-.79h-4.51zM11 107.49a4.35 4.35 0 1 1 3-7.43l-.59.61A3.55 3.55 0 0 0 11 99.59a3.55 3.55 0 0 0 0 7.1 3.49 3.49 0 0 0 2.5-1.1l.59.61a4.3 4.3 0 0 1-3.09 1.29M27.81 103.14a3.51 3.51 0 1 0-3.5 3.55 3.45 3.45 0 0 0 3.5-3.55m-7.85 0a4.35 4.35 0 1 1 4.35 4.35 4.34 4.34 0 0 1-4.31-4.35M0 90.16l6-10.81v-.08H1a.4.4 0 0 1-.39-.38v-1.67a.4.4 0 0 1 .39-.38h8.4a.39.39 0 0 1 .38.38v.26l-5.91 11H9a.38.38 0 0 1 .38.38v1.67a.38.38 0 0 1-.38.38H.38a.39.39 0 0 1-.38-.38zM11.72 90.39L18 76.86a.36.36 0 0 1 .34-.22h.2a.36.36 0 0 1 .35.22l6.19 13.53a.35.35 0 0 1-.35.52H23a.58.58 0 0 1-.59-.4l-1-2.17h-6l-1 2.17a.6.6 0 0 1-.58.4h-1.77a.35.35 0 0 1-.34-.52zm8.68-4.29l-2-4.42h-.06l-2 4.42zM33.71 76.64a6.81 6.81 0 0 1 4.87 1.87.37.37 0 0 1 0 .56l-1.23 1.26a.31.31 0 0 1-.5 0 4.78 4.78 0 0 0-3.1-1.18 4.67 4.67 0 0 0 0 9.33 4.86 4.86 0 0 0 3.08-1.15.37.37 0 0 1 .5 0l1.25 1.29a.38.38 0 0 1 0 .54 6.9 6.9 0 0 1-4.89 2 7.24 7.24 0 1 1 0-14.47zM47.68 77.22a.38.38 0 0 1 .38-.38h4.61c2.39 0 4.24 1.61 4.24 3.72a3.83 3.83 0 0 1-2.21 3.19A3.62 3.62 0 0 1 57.31 87c0 2.25-1.93 3.88-4.38 3.88h-4.87a.38.38 0 0 1-.38-.38zm4.74 5.53a1.72 1.72 0 0 0 1.73-1.81 1.64 1.64 0 0 0-1.73-1.71h-2.15v3.52zm.29 5.79a1.8 1.8 0 0 0 1.81-1.83A2 2 0 0 0 52.46 85h-2.19v3.58zM61.09 77.22a.38.38 0 0 1 .38-.38h5.75a4.35 4.35 0 0 1 4.38 4.32 4.44 4.44 0 0 1-3 4.06l2.75 5.11a.38.38 0 0 1-.34.58h-2.08a.34.34 0 0 1-.32-.18l-2.68-5.33H63.7v5.13a.39.39 0 0 1-.38.38h-1.85a.38.38 0 0 1-.38-.38zm5.91 6a2.05 2.05 0 0 0 2-2 2 2 0 0 0-2-2h-3.28v4zM81.69 76.64a7.24 7.24 0 1 1-7.21 7.25 7.22 7.22 0 0 1 7.21-7.25zm0 11.86a4.63 4.63 0 1 0-4.6-4.61 4.64 4.64 0 0 0 4.6 4.61zM90.52 77.32a.35.35 0 0 1 .36-.48h1.85a.41.41 0 0 1 .36.28l2.09 8h.08l3.2-8.28a.32.32 0 0 1 .34-.22h.36a.32.32 0 0 1 .34.22l3.22 8.28h.08l2-8a.41.41 0 0 1 .36-.28h1.85a.35.35 0 0 1 .36.48l-3.8 13.51a.38.38 0 0 1-.36.28h-.32a.34.34 0 0 1-.34-.22L99 81.78h-.1l-3.56 9.11a.34.34 0 0 1-.34.22h-.32a.38.38 0 0 1-.36-.28zM110.78 77a.38.38 0 0 1 .38-.36h.5l8.34 8.88v-8.3a.38.38 0 0 1 .38-.38h1.85a.39.39 0 0 1 .38.38v13.53a.38.38 0 0 1-.38.36h-.49l-8.4-9.23v8.65a.38.38 0 0 1-.38.38h-1.83a.39.39 0 0 1-.38-.38zM84.54 11.09L68.8 2a15 15 0 0 0-14.94 0l-15.74 9.09A15 15 0 0 0 30.65 24v18.21a15 15 0 0 0 7.47 12.94l15.74 9.09a15 15 0 0 0 14.94 0l15.74-9.09A15 15 0 0 0 92 42.21V24a15 15 0 0 0-7.46-12.91zm-8 44.41a.48.48 0 0 1 .24.9l-9.28 5.36a12.22 12.22 0 0 1-12.23 0L46 56.4a.48.48 0 0 1 .24-.9zm12.8-21.23c-.1 3.51-1 6.18-2.78 7.91a7.79 7.79 0 0 1-5 2.2H63.75a.24.24 0 0 1-.15-.38l25.5-19.19a.15.15 0 0 1 .24.12zM56.31 46a.59.59 0 0 0 .36 1.07h24.91a10.52 10.52 0 0 0 6.87-3 12 12 0 0 0 .82-.92 12.59 12.59 0 0 1-3.76 7.72 6.35 6.35 0 0 1-4.41 1.76l-41.18.1a.6.6 0 0 1-.35-.1.67.67 0 0 1-.06-1.12L50.68 43l35.06-27a.54.54 0 0 1 .76.08 2.5 2.5 0 0 1 .18.24A5.6 5.6 0 0 1 85.43 24zm-10.1-35.4a.48.48 0 0 1-.21-.89l9.28-5.36a12.22 12.22 0 0 1 12.23 0l9.28 5.36a.48.48 0 0 1-.24.89zM33.39 31.84c.1-3.52 1-6.18 2.77-7.92a7.89 7.89 0 0 1 5-2.2H59a.25.25 0 0 1 .15.44L33.63 41.3a.15.15 0 0 1-.24-.12zm33-11.75a.6.6 0 0 0-.33-1.09H41.15a10.54 10.54 0 0 0-6.87 3 9.19 9.19 0 0 0-.83.92 12.55 12.55 0 0 1 3.77-7.72 6.34 6.34 0 0 1 4.4-1.77l41.19-.1a.74.74 0 0 1 .35.1.68.68 0 0 1 .32.55.66.66 0 0 1-.26.57l-11.17 8.59L37 50.12a.56.56 0 0 1-.76-.08L36 49.8a5.61 5.61 0 0 1 1.25-7.73z"/></svg>