<svg data-name="Layer 1" xmlns="http://www.w3.org/2000/svg" viewBox="0 0 56.54 61.03"><path d="M49.65 10.22l-14.5-8.38a13.78 13.78 0 0 0-13.76 0L6.88 10.22A13.81 13.81 0 0 0 0 22.14v16.75a13.81 13.81 0 0 0 6.88 11.92l14.51 8.37a13.72 13.72 0 0 0 13.76 0l14.51-8.37a13.81 13.81 0 0 0 6.88-11.92V22.15a13.8 13.8 0 0 0-6.89-11.93zm-7.39 40.91a.45.45 0 0 1 .22.83l-8.55 4.94a11.32 11.32 0 0 1-11.26 0L14.12 52a.44.44 0 0 1 .22-.83zm11.81-19.56c-.09 3.24-1 5.69-2.56 7.29a7.19 7.19 0 0 1-4.6 2H30.49a.22.22 0 0 1-.13-.4l23.49-17.61a.14.14 0 0 1 .22.11zM23.64 42.4a.55.55 0 0 0-.19.61.56.56 0 0 0 .52.38h23a9.77 9.77 0 0 0 6.33-2.73 10.24 10.24 0 0 0 .76-.85 11.56 11.56 0 0 1-3.47 7.11 5.84 5.84 0 0 1-4.06 1.62l-37.94.1a.63.63 0 0 1-.32-.1.61.61 0 0 1-.3-.5.62.62 0 0 1 .25-.53l10.29-7.92 32.3-24.87a.5.5 0 0 1 .7.07l.17.22a5.17 5.17 0 0 1-1.16 7.12zm-9.3-32.63a.44.44 0 0 1-.22-.83L22.67 4a11.25 11.25 0 0 1 11.26 0l8.55 4.93a.45.45 0 0 1-.22.83zM2.53 29.33c.09-3.24 1-5.69 2.55-7.29a7.23 7.23 0 0 1 4.61-2H26.1a.22.22 0 0 1 .14.4L2.75 38.05a.14.14 0 0 1-.22-.11zM33 18.51a.57.57 0 0 0 .19-.62.56.56 0 0 0-.52-.37h-23a9.66 9.66 0 0 0-6.33 2.73 8.72 8.72 0 0 0-.76.84A11.59 11.59 0 0 1 6.06 14a5.81 5.81 0 0 1 4.05-1.62l37.94-.1a.63.63 0 0 1 .32.1.61.61 0 0 1 .3.5.62.62 0 0 1-.25.53l-10.28 7.91-32.3 24.85a.5.5 0 0 1-.7-.07L5 45.88a5.17 5.17 0 0 1 1.15-7.12z" fill="#aa9142"/></svg>