<svg data-name="Layer 1" xmlns="http://www.w3.org/2000/svg" viewBox="0 0 404.01 115.01"><path d="M385.8 114c-4.73 0-7.21-1.12-9.3-2.64l-10 2.56-.24-.08V68.65c0-4-.48-13.51-4.81-13.51v-.48l.22-.12c1 .07 2 .12 2.94.12 6 0 10.77-1.7 13.93-4.66h.46v34.23a14.08 14.08 0 0 1 11.06-5.38c9.55 0 14 8.74 14 17.25-.06 9.55-5.67 17.9-18.26 17.9zM384 82.22a6.7 6.7 0 0 0-5 2.65v24.23a4.3 4.3 0 0 0 4.41 4.33c5.93 0 7.3-9.3 7.3-16.45-.01-8.18-1.78-14.76-6.71-14.76zm-22.75-37c-6.86 0-11.57-2.9-11.57-6.76a4.06 4.06 0 0 1 3.89-4.25 3.92 3.92 0 0 1 3.84 4.1 4 4 0 0 1-3.07 4 8.83 8.83 0 0 0 6.54 2.57c4.17 0 6.09-2.29 6.09-5 0-8-16.28-5.63-16.28-16.49 0-5.77 4.61-8.72 11.2-8.72 6.36 0 10.57 2.76 10.57 6.48a3.81 3.81 0 0 1-3.71 4.1 3.71 3.71 0 0 1-3.75-3.94 4 4 0 0 1 2.84-4 7.29 7.29 0 0 0-5.67-2.43c-3.8 0-5.4 2.2-5.4 4.58 0 7.67 16.37 5.43 16.37 16.58.04 6.1-4.81 9.19-11.85 9.19zm-17-20.07v12.93c0 3.23.39 5.43 3.87 5.43v.39h-17.35v-.39c2.71 0 3.22-2.2 3.22-5.43V24c0-3.17-1.42-4.46-3.42-4.46a7.23 7.23 0 0 0-4.84 2.32v16.22c0 3.23.52 5.43 3.23 5.43v.39h-17.37v-.39c3.49 0 3.87-2.2 3.87-5.43V23.41c0-3.15-.37-5.32-3.65-5.41a7.68 7.68 0 0 0-5.05 3.49 38.62 38.62 0 0 0-3.68 7.56l-6.65 15.57h-.26l-8.78-18.55-8.59 18.55h-.26l-11.16-21.13c-1.36-2.52-3.3-5.62-5.88-5.62v-.39h18.27v.39c-3.16 0-3.16 2.13-1.55 5.49l5 10.4 3.74-8.4-.84-1.87c-1.29-2.71-2.58-5.62-4.84-5.62v-.39h17.92v.39c-3.22 0-3.61 2.2-2.26 5.49l3.88 9.69 1.81-4.33c1.09-2.65 2.26-5.55 2.26-7.69 0-1.87-.91-3.16-3.43-3.16v-.39h11.4l12.55-1.17v5.3c2.64-2.78 6.33-5.3 10.71-5.3a7.66 7.66 0 0 1 6.64 3.15c3.41-1.47 6.83-4.8 7.22-9a4.62 4.62 0 0 1-2.93 1 4.81 4.81 0 0 1-4.79-4.74 5 5 0 0 1 5.2-4.86c3.16 0 5.21 2.52 5.21 5.91 0 4.5-3.54 9.64-9.76 11.92a10.12 10.12 0 0 1 1.35 5.47zM246.33 44.6c-9.29 0-16.27-5.61-16.27-14.14s7-14.15 16.27-14.15 16.27 5.62 16.27 14.15-6.97 14.14-16.27 14.14zm0-27.84c-4.06 0-5.42 4.91-5.42 13.7s1.36 13.69 5.42 13.69 5.43-4.91 5.43-13.69-1.36-13.7-5.43-13.7zm-3.9 46.73c0 6.74-6.18 10.52-15.16 10.52a40.45 40.45 0 0 1-6.25-.56v34.34c0 4 .48 6.74 4.81 6.74v.47h-22.37v-.48c4.33 0 4.81-2.73 4.81-6.74V75.29a27 27 0 0 1 .56-5.86c-18.6-8.58-35.84-26.24-51.48-26.24-1.21 0-2.45.05-3.68.14-13 2.38-12.43 12.5-12.43 12.5-.55 13.69 17.14 19.43 17.14 19.43-33.24 3-30.11-19.18-30.11-19.18s.91-15.42 20.76-15.63c.65 0 1.3-.07 2-.07a33.79 33.79 0 0 1 5.21.42 20.87 20.87 0 0 0 .22-3.33V.51h-3.38c-6.91 0-10.43 4.71-10.43 9.78a12.89 12.89 0 0 0 2.94 8c-6.39-.52-10.73-4.12-10.73-8.89 0-5.81 6.32-9.41 16-9.41h25.27c13.66 0 20.05 3.75 20.05 10.8 0 6.62-5.58 10.88-19.32 10.88V22c15 0 20.86 4.41 20.86 11.32s-5.95 12.13-19.83 12.13h-7.66c13.14 6.28 26 16.95 38.84 23.13C211.56 58.6 219.82 54 229.52 54s12.91 4.68 12.91 9.49zm-59.77-52.61c0-4.78-1.66-10.37-8.29-10.37h-5.22v21.17h3.16c7.27 0 10.35-4.41 10.35-10.8zm-8.22 34c7.2 0 9.77-6.1 9.77-11.75s-2.43-11-10.14-11h-4.92V44.9zm56.92 9.93c-9.22 0-10.34 8-10.34 17v.88a33.4 33.4 0 0 0 6.33.65c8.66 0 14.28-3.86 14.28-9.88 0-5.18-4.25-8.63-10.27-8.63zm-8.2-27.67a5.28 5.28 0 0 1-5.23-5.75 7.88 7.88 0 0 0-3.48 4.26v12.24c0 3.61 1 5.62 4.52 5.62v.39h-18.66v-.39c3.48 0 3.87-2.39 3.87-5.62V23.67c0-3.23-.39-5.62-3.87-5.62v-.39l13.81-1.29v9.24c1.23-4.71 4.13-9.3 8.72-9.3a5.36 5.36 0 0 1 5.55 5.49 5.28 5.28 0 0 1-5.23 5.36zm-111 17.44c-9.94 0-15.05-7-15.05-14.34 0-8.72 7.37-14 15.89-14 8 0 12.13 4.65 12.13 8.85a4.88 4.88 0 0 1-5 5 5.14 5.14 0 0 1-5.24-5.09 5 5 0 0 1 4.11-5 4.88 4.88 0 0 0-4.71-3.36c-5.42 0-6.65 7.11-6.65 12.47C107.6 38 111 43 116.38 43c3.94 0 6.91-2.71 8.85-5l.32.26a16.41 16.41 0 0 1-13.43 6.34zm-24-.06c-4 0-6.33-2-7.29-4.52a11 11 0 0 1-9.5 4.58c-5.61 0-9.49-2.84-9.49-7.62 0-5.49 5.1-7.56 11.37-7.56a30.46 30.46 0 0 1 7 .84v-6.76c0-3.68-.78-6.85-5-6.85a6.51 6.51 0 0 0-5.48 2.84 5.18 5.18 0 0 1 2.84 4.59 4.75 4.75 0 0 1-4.91 4.72 4.67 4.67 0 0 1-4.65-4.85c0-4.26 5.17-7.62 12.79-7.62 6.77 0 14.65 2.71 14.65 10.46V40.6c0 1.23.64 1.81 1.68 1.81 1.61 0 3.1-1.62 4.13-3.17l.32.2c-1.74 2.56-3.93 5.1-8.45 5.1zM80.3 30.78a12.89 12.89 0 0 0-3.1-.52c-3.36 0-4.78 2.33-4.78 6.21 0 3.16 1 6 3.74 6 1.36 0 2.78-.71 4.14-2.45zM59.94 58.53c6.91 4.21 12.68 8.77 19.23 8.77C86.37 67.3 91 62 91 54.4a15.16 15.16 0 0 0-1.64-7.06c7.41 2.49 10.69 7.34 10.69 12 0 6-5.28 11.12-14.18 11.12-9.76 0-17.6-6.2-26.5-11.62-7.84-4.78-16.32-9.13-26.58-9.13a31.21 31.21 0 0 0-3.42.15l-.07-.15L56.8.5h-7.91c-9 0-15 8.27-17.17 15.68l-.35-.07L32.72 0h38.33l.14.14-28.35 50.41a68.85 68.85 0 0 1 17.1 7.98zM46.1 68.14c0 4.08-2.69 8-7.5 8a7.34 7.34 0 0 1-7.6-7.63 7.71 7.71 0 0 1 5.74-7.69 15 15 0 0 0-11.47-4.72c-7.68 0-10.92 4.26-10.92 8.89 0 14.91 33.14 10.56 33.14 32.24C47.49 109 37.67 115 23.42 115 9.53 115 0 109.36 0 101.86a8 8 0 0 1 7.87-8.25 8 8 0 0 1 1.57 15.75c2.59 2.69 7.13 5 13.24 5 8.42 0 12.31-4.44 12.31-9.82C35 89 2 93.61 2 72.49c0-11.21 9.35-16.95 22.67-16.95 12.91 0 21.43 5.37 21.43 12.6zm25.31 9.56c11.55 0 20.21 7 20.21 17.57S83 112.85 71.41 112.85s-20.21-7-20.21-17.58S59.86 77.7 71.41 77.7zm0 34.58c5 0 6.73-6.09 6.73-17s-1.68-17-6.73-17-6.74 6.1-6.74 17 1.69 17 6.74 17zm44.9-34.58c9.94 0 15.07 5.78 15.07 11a6.06 6.06 0 0 1-6.25 6.3 6.39 6.39 0 0 1-6.42-6.42 6.24 6.24 0 0 1 5.06-6.26 6.09 6.09 0 0 0-5.86-4.17c-6.73 0-8.26 8.83-8.26 15.49 0 11.07 4.17 17.25 10.91 17.25 4.89 0 8.58-3.37 11-6.26l.4.32a20.35 20.35 0 0 1-16.67 7.95c-12.35 0-18.69-8.75-18.69-17.82-.02-10.88 9.12-17.38 19.71-17.38zm36.64 27c0 4 .48 6.74 4.81 6.74v.56h-22.37v-.48c4.33 0 4.81-2.73 4.81-6.74V86.53c0-4-.48-6.74-4.81-6.74v-.49H153zM175.4 94a37.39 37.39 0 0 1 8.74 1v-8.39c0-4.58-1-8.51-6.17-8.51a8.11 8.11 0 0 0-6.82 3.53 6.43 6.43 0 0 1 3.53 5.7 5.9 5.9 0 0 1-6.1 5.86 5.79 5.79 0 0 1-5.77-6c0-5.3 6.42-9.47 15.88-9.47 8.42 0 18.2 3.37 18.2 13v17.17c0 1.53.8 2.25 2.08 2.25 2 0 3.85-2 5.14-3.93l.4.24c-2.25 3.21-5 6.34-10.59 6.34-5 0-7.86-2.49-9.06-5.62-2.16 3-5.69 5.7-11.79 5.7-7 0-11.78-3.54-11.78-9.47 0-6.84 6.33-9.4 14.11-9.4zm3.6 16.2c1.68 0 3.45-.89 5.13-3V95.67a16.14 16.14 0 0 0-3.85-.64c-4.17 0-5.93 2.89-5.93 7.7.01 3.94 1.21 7.47 4.65 7.47zm90.3-50.64c15.12 0 22.43 7.82 22.43 14.28 0 3.91-2.72 7.65-7.05 7.65a7.19 7.19 0 0 1-7.14-7.4 7.26 7.26 0 0 1 5.46-7.22 13.53 13.53 0 0 0-12.24-6.8c-12.57 0-16.82 13.52-16.82 27.29 0 12.07 3.23 26.26 16.48 26.26a14.47 14.47 0 0 0 12.75-6.8 7.26 7.26 0 0 1-5.35-7.22 7.18 7.18 0 0 1 7.13-7.4c4.33 0 7.05 3.66 7.05 7.82 0 6.29-6.28 14.11-22.59 14.11-20 0-31.26-11.73-31.26-27-.02-16.61 13.31-27.57 31.15-27.57zm41.7 46.33c0 4 .48 6.74 4.81 6.74v.48h-22.42v-.48c4.33 0 4.81-2.73 4.81-6.74V68.34c0-4-.48-6.74-4.81-6.74v-.48L311 59.51zm23.54-1.44c0 3.93 1.77 5.53 4.25 5.53a8.9 8.9 0 0 0 6-2.89V88c0-4-.64-7-4-7v-.49l16.76-1.6v26.72c0 4 .48 7 4.81 7v.48h-17.2v-5.7c-3.37 3.54-7.94 6.58-13.31 6.58s-10.1-3.12-10.1-11V88c0-4-.49-7-4.82-7v-.49l17.56-1.6z" fill="#b1ada3" fill-rule="evenodd"/></svg>