<svg id="Layer_1" data-name="Layer 1" xmlns="http://www.w3.org/2000/svg" viewBox="0 0 136.96 57.78"><defs><style>.cls-1{fill:none}.cls-2{fill:#c5c0af}.cls-3{fill:#c7c9cb}</style></defs><path class="cls-1" d="M60.64 48.11c.14 0 .14 0 .14-.14s-.14.03-.14.14zM52.51 47c.14 0 .14 0 .14-.14s-.14-.02-.14.14zM24.71 37.92c0 .23.33.23.42.13.05-.28-.32-.28-.42-.13zM97.48 21.1c0-1.17-1.61.95-1.67 1.84 1.02-.3 1.08-1.18 1.67-1.84zM38.88 41.75a.23.23 0 0 0-.42.15c.19.23.33.04.42-.15zM52.93 45.86a.2.2 0 0 0-.15 0V46a.23.23 0 0 0 .24.24.24.24 0 0 0 .14-.19c0-.11-.16-.19-.23-.19zM39.71 31.42c-.1-.05-.05-.15-.15-.15s-.09.1-.13.19c.14 0 .28.05.28-.04zM38.72 27.29h.05c.05 0 0-.19-.14-.14.05.05 0 .15.09.14zM38.18 33.21h.14V33s-.09 0 0 0h-.14s0 .1-.1 0v.14a.12.12 0 0 1 .1.07zM39.26 33.49v.18c.19.1.19-.33 0-.18zM53.69 30.72a.77.77 0 0 1 0 .1.31.31 0 0 0 .32-.23c-.05 0-.14-.05-.19-.05s-.13.05-.13.18zM31.7 54c.18-.15.18-.24-.06-.32-.09.08-.09.32.06.32zM34.63 39.69c0 .33.34.23.28 0-.13-.05-.23-.05-.28 0zM39.95 31.74h.09v.14h-.09zM121.24 50.16h-.13c0 .05 0 .05-.06.05v.13s.1 0 0 .1h.14a.1.1 0 0 1 .09-.08v-.14s-.04-.01-.04-.06zM57.32 44.26c-.06 0 0 .14 0 .23s.09-.05.09-.14a.1.1 0 0 0-.09-.09zM62.81 50.51c0 .14 0 .18.14.18a.18.18 0 0 0 .19-.19c-.14 0-.15-.14-.29-.14s-.04.1-.04.15zM56.39 44.68a.46.46 0 0 0-.1.29.37.37 0 0 1 .23.05c.06-.05 0-.09 0-.15a.21.21 0 0 0-.13-.19zM37.85 28.66c0 .1-.09.15-.05.29.2.05.2-.24.05-.29zM60.67 33.42c0-1.74-.44-1.63-2.46-1.62-2.49 0-2.58.27-2.56 1.58 0 .47.05.94.06 1.37 0 1.92.06 5.39.07 6.28 0 1.6.39 1.5 1.61 1.48h2.06c.94 0 1.36-.16 1.35-1.34 0-2.85-.09-4.41-.12-6.66 0-.29-.01-.66-.01-1.09zM61.64 50.66h.09c.09 0 .23-.14.23-.33-.14.1-.33.14-.32.33zM54.85 41.89a.25.25 0 0 0-.09.19c0 .13.09.18.28.18-.04-.19-.04-.37-.19-.37zM59.51 47.23c0 .09-.09.15-.09.25v.08h.19c.1 0 .18 0 .18-.14s-.09-.19-.28-.19zM118.46 50.75c.09.1.28.24.42.1s-.41-.29-.42-.1zM118.82 47.75a.86.86 0 0 0 .13.14c.14.06.19-.08.33-.13.01-.33-.51-.34-.46-.01zM104.42 51.6a.47.47 0 0 0 .09-.28h-.24a.3.3 0 0 0 .15.28zM119.27 50.16c-.15.46.28.38.32.24s-.09-.19-.32-.24zM54.13 44.81h.19a.29.29 0 0 0 .32-.29.41.41 0 0 0-.19-.09.31.31 0 0 0-.32.38zM118.58 51.6h.15v-.14c0-.05-.09-.09-.19-.1zM29.66 26.26a8.5 8.5 0 0 1-1.06-4.74 1.66 1.66 0 0 1 .4-1.08c-1.61.44-3.27.92-4.94 1.42a19 19 0 0 1 1.64 5.24 3.57 3.57 0 0 1 1.86-.76 16.17 16.17 0 0 1 2.1-.08zM126.87 25.83a6.26 6.26 0 0 1-2.39-3.34 22.33 22.33 0 0 1-1.36 3.33c1.26-.01 2.52-.01 3.75.01zM107.57 28.17c0-.14.18-.14.14-.33a.38.38 0 0 0-.43 0c0 .16.09.33.29.33zM104.56 26.81c.28-.14.31-.3.26-.5l-.71.23c.14.16.26.3.45.27zM129.26 28.12c0 .1-.09.15 0 .29h.23c0-.19-.05-.29-.23-.29zM106.39 28.45c.1.1.29.1.29-.09a.19.19 0 0 0-.29.09zM107.84 28.64v.24c.16.12.16-.33 0-.24zM128.51 28.12h.14v.15h-.14zM131.51 28.41c0-.05-.19 0-.19 0-.09.33.33.09.19 0zM130.43 29.44c-.05.24.14.24.28.33a.48.48 0 0 0-.1-.33zM131.42 27.7c-.38 0-.57-.66-1-.47.06.38.9.85 1 .47zM130 30.66c.2 0 .38 0 .34-.19s-.34-.1-.34.19zM79.35 29.16c-.17.19-.22.71.11.85.1-.33.14-.66-.11-.85zM1.45 37.35c0 2.9 2.38 4.15 5.59 4.15 6.57 0 16.62-5.2 16.62-12a16.06 16.06 0 0 0-1.68-7C11.5 26 1.45 31 1.45 37.35zM64.29 47.27c0-.14 0-.17-.14-.23 0 .14-.23 0-.23.15v.1h.15a.9.9 0 0 0 .22-.02zM32.17 20.33c-2.25 0-2 4.93-.54 4.93.37-.57 3.21-4.93.54-4.93zM79.5 28.93h-.15v.14h.15zM52.31 50.51v.24a1 1 0 0 1 .24 0c0-.16-.05-.24-.24-.24zM37.61 32.84c-.09 0-.09-.08-.19 0s-.09.1-.09.24c.19 0 .33-.08.28-.24zM55 55.25s.06-.09.07-.18 0-.19-.16-.21-.06.08-.06.14.06.19.15.25zM92.36 29.72h.14v.14h-.14zM99.16 37.1c.1-.1.1-.24 0-.24s-.16.24 0 .24zM96.07 39.31a.19.19 0 0 0 .13.27.2.2 0 0 1 0-.23c-.04 0-.04-.09-.13-.04z"/><path class="cls-2" d="M103 26.62c0-.37-.37 0-.42-.23a.48.48 0 0 1 .06-.18c-1.64.53-3.55 1-5 .54 0 .11.06.21.08.32a11.91 11.91 0 0 0 4.86-.14v-.4c.2.05.24.28.42.09zM96.2 25.83c-1.9-2.62 7-6.71 1.8-6.73-5 0-6 4.41-3 6.75.4-.02.83-.03 1.2-.02zm1.28-4.73c-.59.66-.65 1.54-1.67 1.84.06-.89 1.68-3.01 1.67-1.84z"/><path d="M106.49 26.53c.19 0 .14-.14.28-.14a.21.21 0 1 0-.42 0c.09.05.09.1.14.14z"/><path class="cls-3" d="M105.22 26.44s0 .09.24.18c.32-.37-.19-.32-.24-.18z"/><path class="cls-2" d="M127.81 23.94c-.6-.43-1.34-5.17-1.59-5.17-3 0-3.41 5.67-5.36 5.66-.76 0-.92-3.12-1-4.79a3.62 3.62 0 0 0 .32-.22l.24-.11c.46-.37 1.34-.65 1-1a17 17 0 0 1-1.61 1.09v-.8c-.47-.94-.73-.18-.76 1.22-9.86 5.11-14-7.46-14.12 5.54l-1.76.62a1.8 1.8 0 0 1 .49.2 1.22 1.22 0 0 1 .35.33l.71-.23c0-.13-.08-.27-.12-.43.94-.05 1.89 0 2.7 0a5.49 5.49 0 0 0 .9-2.3c.25-4.16 5.53-.5 10.84-3.45a19.73 19.73 0 0 0 .8 5.68h3.18a22.33 22.33 0 0 0 1.36-3.33 6.26 6.26 0 0 0 2.39 3.34l1.68.05c.38.23 1-.28 1.6.13.09.1 0 .29.28.29.28-.38.47-.09.65 0a2.17 2.17 0 0 1 .35.15 15.06 15.06 0 0 1 5.39.23c1.43-.64-6.78-.08-8.91-2.7z"/><path class="cls-3" d="M97.39 25.74l-.33.21z"/><path class="cls-2" d="M91.16 25.89c-1.89-1.29-3.06-3.89-2.47-7.36-2.54-.84-5.66 5.24-6.21 6.57a22.52 22.52 0 0 0-.32-3.29l2-1.16c.08-.23-.71.17-2 .83-.77-5.12-2.46-13-2.48-7.63.88 1.18.54 5.52.29 8.71-4.89 2.34-12.53 5.44-15.6 1.8-6.9-7.82 12-5.26 12-9 0 .44-11.6 2.53-12.65 2.65-.13-.28.58-5.1-.92-5.1-2.61 0-2 9.26-1.39 10.49a7.49 7.49 0 0 0 1.76 2.26 10.39 10.39 0 0 1-7.11-3c-1.36-1.23-1.36-3.13-3.35-2.11-5.71 2.94-5.55 8.08-7.6-2.41a1 1 0 0 0-.78.47 24.38 24.38 0 0 0-6.09-.44c0-.05-2.19.1-3.62.27a21.69 21.69 0 0 0-4.22.9 32.23 32.23 0 0 1-6.62 2c-1.72-3.64-3.95-6.69-3.95-9C19.87 5.05 28.47.55 35.16.55c2.23 0 2.93 1.06 2.93 2.12 0 4.14-8.68 5.63-8.68 10.08 0 1.49.58 1.69.9 1.69.15 0 .15-.16.15-.28 0-2.5 8.38-6.1 8.38-11.23C38.84 1.14 37.35 0 35 0c-4.57 0-17.09 4.07-17.09 13 0 3.05 2.15 5.71 3.79 9C11.34 25.42 0 30.82 0 38.18c0 2.78 2.7 4 6.37 4 6 0 14.53-3.27 18-8.5v-3.11c.14-.14.33-.14.42-.33s.38.14.37-.15c-.05-.51-.51.15-.79-.13a4 4 0 0 1 1.43-2.84 19 19 0 0 0-1.64-5.24c1.67-.5 3.33-1 4.94-1.42a1.66 1.66 0 0 0-.43 1.08 8.5 8.5 0 0 0 1.06 4.74h3.08A10 10 0 0 0 34.52 24c2.87-4.85 3.85-5 9.49-4.72-1.39 3.25-.39 12 7.47 5.1 3.18-2.8 7.32 2 12.24 1.7 4.16 2.89 10.77 0 16.16-2.94-.07.91-.12 1.69-.12 2.24.08.18.16.35.24.5a1.72 1.72 0 0 1 1.06.21 2.13 2.13 0 0 1 .25 1.2c1.49.38 2.86-3.16 4.6-3.73a11.68 11.68 0 0 0 4.48 3.28v-.46a1.07 1.07 0 0 1 .77-.49zM7 41.5c-3.21 0-5.59-1.25-5.59-4.15C1.45 31 11.5 26 22 22.53a16.06 16.06 0 0 1 1.68 7C23.66 36.3 13.61 41.5 7 41.5zm24.63-16.24c-1.44 0-1.71-5 .54-4.93 2.67 0-.17 4.36-.54 4.93z"/><path class="cls-2" d="M29.66 26.26a16.17 16.17 0 0 0-2.07.08 3.57 3.57 0 0 0-1.86.76 4 4 0 0 0-1.43 2.84c.28.28.74-.38.79.13 0 .29-.18.1-.37.15s-.28.19-.42.33v3.11l.05 3.79a9.93 9.93 0 0 0 .08 2.73c.09.09.28.13.28.22s-.24.19-.28.24a1.42 1.42 0 0 0-.05.48 22 22 0 0 0 .05 3v3.1c0 2.11-.15 4.27.06 6.1a3.6 3.6 0 0 0 1.51 2.6l15.2-3.65c0-.92-.09-1.86-.09-2.79L41 42.24c0-.84.25-3.05-.13-3.56s-1.22-.27-2.07-.26h-2.06c-1 0-3.47-.16-3.89.27s-.17 1.84-.16 2.78-.17 2.39.31 2.71 1.87-.26 2.12.54c.16 1.59 0 3.48.1 5.16.05.28.61 0 .53.42-.43-.19-.71.25-1.17.34a13.92 13.92 0 0 1-2 0c-1.13 0-2 .16-2.22-.36-.18-4.12-.09-8.53-.18-12.61 0-.34-.47-.09-.48-.33.15-.14.52 0 .47-.38V34.7c0-1.12-.22-2.29.39-2.49a9.43 9.43 0 0 1 2-.11c.65 0 1.64-.21 2.11.07.85.42.08 2.87.51 3.47.33.42 1.83.27 2.73.25s2.39.21 2.81-.27.16-1.73.15-2.44a32.62 32.62 0 0 0 0-3.71 4.18 4.18 0 0 0-1.11-2.24c-1.38-1.4-4.22-1.05-7.06-1h-.22c-.95.06-1.93.03-2.82.03zm-4.95 11.66c.1-.15.47-.15.42.13-.13.1-.46.1-.42-.13zm14.17 3.83c-.09.19-.23.38-.42.15a.23.23 0 0 1 .42-.15zm-4.25-2.06h.28c.09.23-.32.31-.28 0zm-3 14c.24.08.24.17.06.32s-.14-.25-.05-.34zM40 31.74v.14-.14zm-.48-.47c.1 0 0 .1.15.15s-.14 0-.28 0c.08-.05.22-.05.17-.15zm-.3 2.22c.19-.15.19.28 0 .18zm-.49-6.24h-.05s0-.09-.09-.18c.18-.01.18.09.18.18zM38.08 33c.1.05.1 0 .1 0h.14v.23h-.14a.12.12 0 0 0-.1-.09zm-.23-4.32c.18.05.19.33-.05.29-.04-.16.05-.21.05-.31zm-.43 4.14h.19c0 .2-.09.24-.28.2 0-.12.05-.12.09-.22zM27.33 57.58c1.27.15 3.06 0 4.84.06 2.11 0 4.45.34 5.87-.06a3.8 3.8 0 0 0 2.62-3.21.68.68 0 0 0 0-.2L25.6 57a4 4 0 0 0 1.73.58zM64.21 49.79L58.46 51c.54 1.26 1 2.79 1.44 3.77.53 1.23.68 2.23 2.1 2.17.65 0 1.4-.1 2.06-.11.38 0 1 .07 1.65.07s1.16-.1 1.16-.53a6.59 6.59 0 0 0-.68-1.82c-.72-1.69-1.36-3.19-1.98-4.76zm-2.48.91h-.09c-.09 0 .18-.23.32-.29.04.15-.08.29-.23.29zm1.22 0c-.09 0-.14 0-.14-.18v-.15s.15.15.29.14a.18.18 0 0 1-.1.18zM65.5 46.51c.89-1.09 1.24-2.65 1.22-4.94 0-1.46-.12-3-.14-4.5s.06-3.1 0-4.56c0-4.08-1.76-6.6-5.37-6.56-.94 0-1.83.16-2.82.17h-.09c-.09 0-.42.23-.65.24-.57 0-1.19-.36-2.22-.36-1.26 0-2 .4-2.95.42-.42 0-.75-.18-1-.18s-.37.19-.56.2-.38-.24-.61-.28c-.47.14-.51.52-.51 1v.75c.09 8 .14 15.73.21 23.6l5.76-1.38c0-1.07.15-1.78.92-1.78.44 0 .86.51 1.26 1.25l5.78-1.39c.39-.7 1.27-1.13 1.77-1.7zm-1.58.68c0-.15.23 0 .23-.15.1.06.14.09.14.23a.9.9 0 0 1-.22 0h-.15zm-11.61 3.56v-.24c.19 0 .24.08.24.22a1 1 0 0 0-.24.02zm.2-3.77c0-.14 0-.14.14-.14s0 .16-.14.16zm.51-.75a.23.23 0 0 1-.24-.24v-.09a.2.2 0 0 1 .15 0c.08 0 .23.08.23.18a.24.24 0 0 1-.16.15zm.68-15.41a.77.77 0 0 0 0-.1c0-.13 0-.18.14-.18s.14.05.19.05a.31.31 0 0 1-.33.23zm.62 14h-.19a.31.31 0 0 1 .32-.34.41.41 0 0 1 .19.09.29.29 0 0 1-.32.28zm.44-2.77a.25.25 0 0 1 .09-.19c.19 0 .19.18.19.37-.19.03-.28-.02-.28-.15zM56.52 45a.37.37 0 0 0-.23-.05.46.46 0 0 1 .1-.29.21.21 0 0 1 .18.19c0 .08.01.15-.05.15zm.8-.53v-.23a.1.1 0 0 1 .09.09c0 .11-.04.16-.09.16zm2.29 3.12h-.19v-.08c0-.1.09-.16.09-.25.19 0 .28.09.28.24s-.04.11-.18.11zm1 .5c0-.14 0-.14.14-.14s.03.16-.11.16zm-1.19-5.56h-2.06c-1.22 0-1.6.12-1.61-1.48 0-.89-.05-4.36-.07-6.28 0-.43-.05-.9-.06-1.37 0-1.31.07-1.55 2.56-1.58 2 0 2.44-.12 2.46 1.62v1.13c0 2.25.09 3.81.12 6.66.05 1.16-.37 1.3-1.31 1.32zM50 54.62c-.25 1.81 0 1.89 1.1 2.05.51.06 1.11.1 1.53.16l1.53.25c1.4.19 1.49-.12 1.7-1.71.25-1.81.26-2.57.35-3.49l-5.89.36c-.09.76-.2 1.58-.32 2.38zm4.89.24c.14 0 .18.08.16.21s0 .14-.07.18-.17-.17-.15-.25.02-.1.08-.14zM75.69 52.37c-.09 1.17-.41 3.26-.1 3.62s1.75.38 2.64.46c.7 0 2.28.36 2.73 0a3.19 3.19 0 0 0 .36-2.09c-.06-.38-.35-.26-.4-.78.13-.37.45.32.49-.15.15-2 .32-4 .5-6.09l-5.84.66c-.13 1.44-.26 2.9-.38 4.37zM80 25.84h-1.33a12.87 12.87 0 0 0-2.68 0c-.65.2-.51.86-.5 1.7.07 6.47.14 12.76.21 19l5.76-1.39-.18-16v-2a2.13 2.13 0 0 0-.25-1.2 1.72 1.72 0 0 0-1.03-.11zm-.65 3.09h.15v.14h-.15zm.11 1.07c-.33-.14-.28-.66-.11-.85.25.2.21.53.11.85zM97.19 26h-.12a2.82 2.82 0 0 0-.86-.12h-2.15a19.54 19.54 0 0 0-2.89 0 1.07 1.07 0 0 0-.77.45V44.5l5.84-1.34c0-.58-.09-1.17-.16-1.7s-.38-1 0-1.41c.52.38.62 1.17.8 1.83.12.35.23.7.35 1l5.15-1.18a5.27 5.27 0 0 1-.43-1.19c-1.18-3.65-2.25-7.31-3.47-10.93-.61 0-.76.52-1.32.61 0-.85.47-1.17 1.13-1.13a7.53 7.53 0 0 0-.51-1.59c0-.12-.06-.28-.1-.45s0-.21-.08-.32a1.24 1.24 0 0 0-.41-.7zm1.93 10.85c.14 0 .14.14 0 .24s-.12-.18 0-.23zm-6.63-7h-.13v-.14h.13zm3.71 9.72a.19.19 0 0 1-.13-.27c.09-.05.09 0 .18 0a.2.2 0 0 0-.05.28zM104.7 25.88c0 .16.1.3.12.43s0 .36-.26.5-.31-.11-.45-.27a1.22 1.22 0 0 0-.35-.33 1.8 1.8 0 0 0-.49-.2.5.5 0 0 0-.62.2.48.48 0 0 0-.06.18c0 .19.47-.14.42.23-.19.19-.23 0-.42-.09v.4c-.11 2.94 0 6.08 0 9.09-.05.28.28.23.24.46s-.33.1-.24.43a21.77 21.77 0 0 0 .19 3.65 4.07 4.07 0 0 1 .15 1.08l5.54-1.26v-6.29c0-1.27.14-2.91-.24-3.66.38-.57.24-1.79.24-2.82 0-.8.09-1.73-.66-1.69-.18.09.33.42-.1.42s0-.37-.13-.46h-.12c-.87.03-1.82-.05-2.76 0zm3.14 2.76c.2-.09.2.33 0 .24zm-2.38-2c-.19-.09-.24-.13-.24-.18s.56-.21.24.16zm.93 1.83a.19.19 0 0 1 .29-.09c0 .17-.19.17-.29.07zm1.32-.61c0 .19-.1.19-.14.33-.2 0-.29-.14-.29-.33a.38.38 0 0 1 .43-.02zM96.35 44.91l-5.92 1.23.11 9.37a1.67 1.67 0 0 0 .93.08c.24.14 0 .42.25.6h4.22a1.54 1.54 0 0 1 .47-.48c-.18-3.42.04-7.37-.06-10.8zM97.75 45.1c1.11 3.08 2.21 6.21 3.28 9.33.36 1 .5 2.47 1.8 2 .29-.1.36-.66.74-.62.14.13 0 .41.06.51a8.16 8.16 0 0 0 2.81-.13c.53.31 1.31-.09 1.69 0 .09-.16.32-.16.47-.3 0-4.24-.17-8.76-.3-13.26zm6.67 6.5a.3.3 0 0 1-.15-.28h.24a.47.47 0 0 1-.09.28zM130.43 26.3c-.28 0-.19-.19-.28-.29-.56-.41-1.22.1-1.6-.13l-1.68-.05h-6.93a6.24 6.24 0 0 0-2.28.16c-.52.24-.28 2.77-.28 3.75v9.91l5.86-1.35V37c0-1.56-.13-3 0-4.47a2.16 2.16 0 0 0 .1-.94c.19 0 .14.15.24.15h2.25c.66 0 1.78-.25 2.2.18s.19 2.87.19 3.76v1.5L134 35.8v-.3a52.1 52.1 0 0 0 0-5.45 5 5 0 0 0-2.61-3.6 2.17 2.17 0 0 0-.35-.15c-.14-.09-.33-.38-.61 0zm-1.78 2h-.14v-.15h.14zm.79.14h-.23v-.29c.23-.03.28.07.23.26zm.56 2.25c0-.29.24-.32.34-.19s-.14.16-.34.16zm.43-1.22h.18a.48.48 0 0 1 .1.33c-.14-.12-.33-.12-.28-.36zm0-2.21c.42-.19.61.43 1 .47-.11.35-.95-.12-1-.5zm1.08 1.18c.14.09-.28.33-.19 0 0 .01.14-.08.19-.03zM128.83 47.1c.13.22.32 0 .56.14 0 .38-.57.08-.57.42-.12.79.14 1.65-.19 2.1s-1.42.25-2.31.23-1.93.14-2.29-.24-.17-3-.15-4.27c.05-1.65.09-3.39.13-5.09l-5.75 1a2.83 2.83 0 0 0-.18 1.45l-.21 9.1c0 1-.3 3 .16 3.52.31.35 2 .25 2.9.26 0 0 .14-.13.19-.13s.19.15.28.15c.7.06 1.88 0 2.39 0a59.9 59.9 0 0 0 6.3.15 5.07 5.07 0 0 0 4-2.77c.74-1.54.52-4.46.57-6.81l.19-7.88-5.84 1zm-10.1 4.5h-.15v-.24c.1 0 .1.1.19.1s-.04.05-.04.14zm-.27-.85c0-.19.47-.17.42.1s-.33 0-.42-.1zm.49-2.86a.86.86 0 0 1-.13-.14c0-.33.47-.32.46 0-.14.06-.19.25-.28.14zm.32 2.27c.23.05.33.14.32.24s-.47.22-.32-.24zm2.06.19a.1.1 0 0 0-.09.08h-.14c.05-.09 0-.09 0-.1v-.13c.06 0 .06 0 .06-.05h.13c0 .05.05.05.1.05zM74.85 10.4V12a.62.62 0 0 0 .61.61h1.39a.62.62 0 0 0 .62-.61V9a.62.62 0 0 0-.62-.62h-1.08V6.31h.78V7.5h.92V6a.6.6 0 0 0-.62-.61h-1.39a.59.59 0 0 0-.61.62v2.71a.6.6 0 0 0 .61.6h1.09v2.32h-.78V10.4zM73 5.8v.41h.52L74 5.8v-.92h-1zm-3.8-.41v7.17h.92V8.71l.93 3.85h1.08V5.39h-.92V9l-.88-3.56zm-5.94 0l.74 7.17h1.39l.4-3.28.39 3.28h1.42l.77-7.17h-1l-.51 5-.62-5h-1l-.61 5-.51-5zm-1.73 6.25h-.77V6.31h.77zm-1.69.36a.62.62 0 0 0 .61.61h1.39a.62.62 0 0 0 .62-.61V6a.62.62 0 0 0-.62-.62h-1.39a.63.63 0 0 0-.61.62zm-2.68-5.69h.66V8.6h-.66zm.77 6.25h.93v-3a.6.6 0 0 0-.43-.6.5.5 0 0 0 .31-.5V6a.61.61 0 0 0-.61-.62h-1.89v7.17h.92v-3h.77zm-4.38-6.25h.67V8.4h-.67zm0 3h.78v2.32h-.78zm-.92 3.24h2a.62.62 0 0 0 .61-.61V9.42a.6.6 0 0 0-.43-.61.49.49 0 0 0 .32-.5V6a.62.62 0 0 0-.62-.62h-1.88zm-2.08-5V6a.61.61 0 0 0-.61-.62h-1.39a.64.64 0 0 0-.62.62v6a.63.63 0 0 0 .62.61h1.39a.61.61 0 0 0 .61-.61v-1.6h-.92v1.24h-.77V6.31h.77v1.23zm-5-1.23l.41 3.92h-.82zm.65 6.25h.9l-.74-7.17H44.7l-.76 7.17h.92l.14-1.42h1zm-5.86-.92v.92h2.8v-.92h-1.86l1.83-5.12V5.39h-2.68v.92h1.75z"/></svg>