<svg data-name="Layer 1" xmlns="http://www.w3.org/2000/svg" viewBox="0 0 404 81.99"><path d="M391.16 65.09V18.62h5.89v40.49H404v6zm-24.69-46.47h14.74v6h-8.85v12.79h6.23v6h-6.23v15.7h9.3v6h-15.19zm-24.69 0h14.74v6h-8.85v12.79h6.23v6h-6.23v15.7H357v6h-15.2zm-15.72 26.75h-5v19.72h-5.89V18.62h12.12a4 4 0 0 1 3.93 4V38.8a3.18 3.18 0 0 1-2 3.25A3.94 3.94 0 0 1 332 46v19.09h-5.9zm-.72-20.78h-4.26V39.4h4.26zm-44.4 15.54v25H275V18.62h7.21l5.63 23.1v-23.1h5.89v46.47h-6.94zm-21.62 5.24h-5v19.72h-5.89V18.62h12.12a4 4 0 0 1 3.93 4V38.8a3.18 3.18 0 0 1-2 3.25 3.94 3.94 0 0 1 2.74 3.95v19.09h-5.9zm-.72-20.78h-4.26V39.4h4.26zm-34.84-6h14.74v6h-8.85v12.82h6.23v6h-6.23v15.7H239v6h-15.24zM207.71 46h-5v19.09h-5.89V18.62h5.89v21.44h5V18.62h5.9v46.47h-5.9zm-24.29 19.09h-5.9v-40.5h-5.24v-6h16.38v6h-5.24zm-23.25 0h-8.91a4 4 0 0 1-3.93-3.92V18.62h5.89v40.49h5V18.62h5.89v42.55a4 4 0 0 1-3.94 3.92zm-26.92 0h-8.91a4 4 0 0 1-3.93-3.92V22.6a4.05 4.05 0 0 1 3.93-4h8.91a4 4 0 0 1 3.93 4v38.57a4 4 0 0 1-3.93 3.92zm-2-40.5h-5v34.52h5zm-25 40.5h-8.83a4 4 0 0 1-3.93-3.92V51.08h5.9v8h5v-15h-6.97a4 4 0 0 1-3.93-3.92V22.6a3.77 3.77 0 0 1 3.93-4h8.91a3.83 3.83 0 0 1 3.93 3.92v9.75h-5.9v-7.7h-5v13.57h6.94a4 4 0 0 1 3.93 4v19.03a4 4 0 0 1-3.9 3.92zM69.13 33.51c-.5 0 8.51-1.53 8.51-1.53v13.08l-8.51-1.53zM46.35 57.65h6.93L67.13 82h-6.94zm-26.81-16h6v7.61h35.58V26.91H25.55v5.58h19.28v14.4h-6v-8.31H0V0h44.83v18.28h-6V6.09H6v26.4h13.54V20.81h47.59v34.53H19.54zM6 65h13.54v-7.35h6V65h13.28v-7.35h6v13.42H25.55V82h-6V71.07H0V49h6z" fill="#b4afa0" fill-rule="evenodd"/></svg>