<svg data-name="Layer 1" xmlns="http://www.w3.org/2000/svg" viewBox="0 0 444.01 131.98"><path d="M439.17 84a4.85 4.85 0 1 1 4.83-4.81 4.83 4.83 0 0 1-4.83 4.81zm0-9.21a4.37 4.37 0 1 0 4.31 4.37 4.35 4.35 0 0 0-4.31-4.34zm.75 4.63l1.7 2.6h-.53l-1.7-2.61h-1.49v2.61h-.53v-5.73h2.2c1.28 0 1.89.56 1.89 1.61s-.7 1.42-1.54 1.55zm1-1.57c0-.81-.61-1.11-1.43-1.11h-1.6V79h1.47c.91 0 1.57-.33 1.57-1.12zm-14.62.54c-.67.18-1.35.34-2 .46a5.16 5.16 0 0 0-1.73.62l-.42 1.27-.91 1.74a.76.76 0 0 0-.13.32 1.94 1.94 0 0 0-.07.41c0 .13.09.29.16.5s-.19-.17-.09 0-.38 1-.27 1.2l.27.54v.19a6.52 6.52 0 0 1-.08.81c-.05.36-.12.73-.19 1.12s-.14.73-.19 1a3.71 3.71 0 0 0-.08.58.79.79 0 0 0-.08.46V90a.41.41 0 0 0 .08.27v2.35a9.52 9.52 0 0 1-.14 1.6 3 3 0 0 1-.52 1.32v5.86a9.57 9.57 0 0 1-.09 1.21 9.46 9.46 0 0 1-.23 1.18 2.53 2.53 0 0 1-.46 1v1.08c0 1 .73 1.25.63 2.22s-.21 2-.31 3a6.31 6.31 0 0 1-.31 1.51 4.81 4.81 0 0 0-.23 1.5v1.9c0 .64 0 1.31.06 2s.09 1.34.17 2a14.8 14.8 0 0 0 .31 1.74c.16.51-.06 1.65 0 2s-.25.91-.19 1.31.12.84.15 1.27.06 1 .06 1.54l-.65 1.93c-.25.44-1.58.66-2 .66a2.85 2.85 0 0 1-1.52-.52 10.78 10.78 0 0 1-1.69-1.33 20.44 20.44 0 0 1-1.73-1.83l-1.72-2c-.56-.67-1.1-1.3-1.61-1.89s-1-1.08-1.38-1.47a3.23 3.23 0 0 1-.22-.69 1.16 1.16 0 0 0-.33-.69c-.41-.44-.84-1-1.3-1.56a12.52 12.52 0 0 0-1.35-1.53 15.29 15.29 0 0 1-1.46-1.27 17.9 17.9 0 0 1-1.23-1.37c-.38-.47-.76-1-1.13-1.44s-.77-1-1.18-1.5a2.05 2.05 0 0 0-.54-.52 5.09 5.09 0 0 0-.63-.39 3 3 0 0 1-.57-.38 1.22 1.22 0 0 1-.37-.53 40.49 40.49 0 0 0-2.69-3.33 15.19 15.19 0 0 0-3.12-2.6 1.26 1.26 0 0 1-.48-.4l-.34-.5a4.72 4.72 0 0 0-.41-.5 2.1 2.1 0 0 0-.61-.45c-.06-.08-.16-.25-.33-.52l-.56-.88-.57-.93-.35-.56-.46-.39a6.3 6.3 0 0 0-.48-1.36 5.54 5.54 0 0 0-.69-1q-.4-.46-.93-1l-1.17-1.2-.34-.54a2.63 2.63 0 0 0-.58-1 8.84 8.84 0 0 0-.85-.74l-.94-.67a3.7 3.7 0 0 1-.82-.75 2 2 0 0 1-.39-.6l-.23-.55a1.1 1.1 0 0 0-.34-.45c-.16-.12.14-.76-.22-.81a1.54 1.54 0 0 0-.71.33c-.32.21-.48.41-.48.59l.19 1.12a3.49 3.49 0 0 1-.19 1 10.54 10.54 0 0 0 .26 2v1l-.09 1.15a7.66 7.66 0 0 0 .15 1.35c.1.54-.67 1-.44 1.23a6.83 6.83 0 0 1 .27 1.27 12.56 12.56 0 0 1 .08 1.43c0 .56 0 1.1-.08 1.6a8.33 8.33 0 0 1-.27 1.44 1.06 1.06 0 0 1 .27.62 6.18 6.18 0 0 1-.11 1.19c-.08.36-.16.7-.26 1s-.17.63-.24.94a3.83 3.83 0 0 0-.12 1v2.35c0 .38 0 .76.08 1.14a9.22 9.22 0 0 0 .15 1 3 3 0 0 0 .21.69c-.12.34-.23.62-.3.85s-.15.45-.2.65a4.76 4.76 0 0 0-.11.62 5.41 5.41 0 0 0 0 .74 12 12 0 0 0 .23 2.36 11.46 11.46 0 0 0 .71 2.36 10 10 0 0 0 1.22 2.13 7.46 7.46 0 0 0 1.76 1.74 1.92 1.92 0 0 0 .68.26l.72.16a3.77 3.77 0 0 1 .72.23 1.77 1.77 0 0 1 .61.5c.41 0 .85 0 1.31.06s.9.1 1.33.17a6.92 6.92 0 0 1 1.17.33 2.51 2.51 0 0 1 .84.52c.21.46.38.89.52 1.27a4.75 4.75 0 0 1 .22 1.58 6.42 6.42 0 0 1-1.33 1.33 3 3 0 0 1-1.79.48h-.73l-1.54-.8a27.43 27.43 0 0 0-2.83-.31q-1.67-.12-3.21-.12H375a8.06 8.06 0 0 0-.85 0 4.12 4.12 0 0 0-1 .23h-7.64a.6.6 0 0 0-.45-.46 6.66 6.66 0 0 0-.67-.12 3.07 3.07 0 0 1-.6-.11.41.41 0 0 1-.25-.43 2.47 2.47 0 0 1 .4-1.44 3.19 3.19 0 0 1 1-.91 4.94 4.94 0 0 1 1.4-.51l1.5-.34h.26l.58-.15a1.37 1.37 0 0 0 .54-.48 4.6 4.6 0 0 0 .44-.72c.14-.25.3-.51.47-.78a3.38 3.38 0 0 1 .56-.72 1.05 1.05 0 0 0-.14-.61.69.69 0 0 1-.14-.39l1.2-1.46 1.07-9.21a2.77 2.77 0 0 0 .58-1.39 13.28 13.28 0 0 0 .07-1.35l-.82-4.54a4.14 4.14 0 0 1 .09-1c.07-.23.15-.55.25-1 .1-.23-.24-.94-.2-1.29s.08-.65.13-.94v-3.47a1.21 1.21 0 0 1 .11-.48 1.28 1.28 0 0 1 .19-.34v-4.67l.15-2.27a1.57 1.57 0 0 0 .12-.43c.05-.25.08-.39.08-.42a16.65 16.65 0 0 1-.5-2.45c-.11-.8 0-1.11-.42-1.78q-.08 0-.12-.12a.35.35 0 0 1-.07-.11l-.9-1.62-1.14-1a2.12 2.12 0 0 0-.89-.37c-.36-.06-.72-.11-1.1-.15s-.74-.09-1.09-.15a2 2 0 0 1-.88-.37l-1.27-1a.88.88 0 0 0-.48-.24h-1.72a2.14 2.14 0 0 1-.94-.65c-.27-.31.16-.68 0-1.12a1.31 1.31 0 0 1 .56-1.1 3.6 3.6 0 0 1 1.32-.57 8.35 8.35 0 0 1 1.56-.21h1.21a7.93 7.93 0 0 0 1.56.36 12.81 12.81 0 0 0 1.54.12h1.58a11.7 11.7 0 0 1 1.63.14l.34.09c.21.07.44.12.68.19l.71.19a2.1 2.1 0 0 0 .42.1h.5l2.81-.85a1.81 1.81 0 0 1 .71.18 6.26 6.26 0 0 1 .81.42c.27.17.52.34.77.52l.59.42.24.31c.25.47.59 1 1 1.64s.88 1.26 1.35 1.89.95 1.22 1.44 1.79a9.48 9.48 0 0 0 1.35 1.31l1.84 1a1.46 1.46 0 0 1 .39.38 2.27 2.27 0 0 1 .23.35l.3 1a4.32 4.32 0 0 0 .41.63 4.15 4.15 0 0 0 .34.37 2.46 2.46 0 0 0 .41.28 6.14 6.14 0 0 1 .57.41l1.25 1.23a7.32 7.32 0 0 1 .89 1 7.42 7.42 0 0 1 .67 1.11 15.18 15.18 0 0 1 .66 1.62 5.51 5.51 0 0 1 .56.44l1.11 1 1.08 1a3.3 3.3 0 0 1 .44.44l.42 1a.85.85 0 0 0 .11.32c.08.14.16.29.26.45a3.07 3.07 0 0 0 .28.42 1.68 1.68 0 0 0 .27.27l.85.38c.54.5 1.1 1 1.69 1.6s1.15 1.18 1.68 1.81 1 1.27 1.42 1.91a8.31 8.31 0 0 1 .94 1.89l3.84 3.66a6 6 0 0 0 2 2.77 4.68 4.68 0 0 0 3 1.12v-1.54a7.23 7.23 0 0 1 0-.77 5.42 5.42 0 0 1 .12-.77 1.11 1.11 0 0 1 .09-.23 4.19 4.19 0 0 0 .2-.46c.06-.18.12-.36.19-.52a1.26 1.26 0 0 0 .09-.37.75.75 0 0 0-.19-.59.56.56 0 0 1-.19-.37l.38-2.2a20.87 20.87 0 0 0-.15-2.35c-.1-.87-.18-1.64-.23-2.31v-.31c0-.16 0-.32-.06-.5s-.05-.35-.07-.5a1.94 1.94 0 0 1 0-.35v-.08a1.85 1.85 0 0 1 .07-.57.3.3 0 0 1 .12-.16l.34-.73.66-3.55a2.31 2.31 0 0 1-.35-.82 4.11 4.11 0 0 1-.07-.75l.23-3.67-.23-3.81a3.42 3.42 0 0 1 .07-.75.82.82 0 0 1 .54-.52v-1a2.69 2.69 0 0 0-.23-1 5.3 5.3 0 0 0-.62-1.14 5.85 5.85 0 0 0-.84-1 2.07 2.07 0 0 0-1-.56 1.85 1.85 0 0 1-.3 0l-.5-.1-.52-.09a1.06 1.06 0 0 1-.32-.08l-.89-.62a3.68 3.68 0 0 0-.52-.11 4.87 4.87 0 0 0-.59-.08c-.52-.2-1-.4-1.35-.59a7.37 7.37 0 0 1-1-.64 4.59 4.59 0 0 1-.84-.81c-.26-.31-.54-.67-.85-1.08a.61.61 0 0 0-.41-.29c-.14 0-.27-.16-.4-.44.05-.16.21-.28.48-.37a6.39 6.39 0 0 1 .89-.23 5 5 0 0 1 .9-.11h.73a3.53 3.53 0 0 1 .56.07 5.7 5.7 0 0 1 .6.15c1.61.16 3.11.33 4.51.51a34.89 34.89 0 0 0 4.44.26l7.48-.57h1.05a3.48 3.48 0 0 1 1 .21 1.77 1.77 0 0 1 .77.54 1.5 1.5 0 0 1 .31 1 1.8 1.8 0 0 1-.71 1.58 5.59 5.59 0 0 1-1.58.73zm-23.04-25.16a27.26 27.26 0 0 1-7.14 1.9 25.74 25.74 0 0 1-3.8-.21 5 5 0 0 1-2.41-1.1 3.71 3.71 0 0 1-1.37-2.2 3.54 3.54 0 0 1 .45-2.56 8.39 8.39 0 0 1 2.14-2.39 13.07 13.07 0 0 1 3-1.81 8.21 8.21 0 0 0 2.76-1.94c.78-.84 1-1.47.57-1.91a1.69 1.69 0 0 0-1.73-.39q-1.12.27-5.35 4.5a30.38 30.38 0 0 1-5.57 4.52 27.83 27.83 0 0 1-4.59 2.72 22.88 22.88 0 0 1-4.61 1.88 28.32 28.32 0 0 1-6.75 1h-1.6a19.55 19.55 0 0 1-5.86-1.16 7 7 0 0 1-2.35-1.76 6 6 0 0 1-1.05-2.43 26 26 0 0 1-2.84 1.79 15.16 15.16 0 0 1-3.33 1.32 24.48 24.48 0 0 0-2.76.87 26.19 26.19 0 0 1-3.42 1 9.56 9.56 0 0 1-3.9.17c-1.12-.21-1.79-.71-2-1.49s-.39-1.8-.59-3.07c-.87.68-1.86 1.37-2.95 2.06s-2.12 1.3-3.09 1.82-2 1.08-3 1.7l-2.53 1.46a10.06 10.06 0 0 1-3.86.65 4 4 0 0 1-3.09-1.73 4.24 4.24 0 0 1-.66-2.26 9.49 9.49 0 0 1 .53-1.69c-1 .41-2.27.86-3.82 1.36q-5.44 1.76-8.12 1c-1.78-.5-2.92-1.28-3.39-2.33a4.69 4.69 0 0 1-.18-3.37q.54-1.79-3.12.84a66.55 66.55 0 0 1-6.39 4.11c-1.82 1-3.19 1.69-4.1 2.08a5.55 5.55 0 0 1-2.88-.62 2.63 2.63 0 0 1-1.17-2.24 3.51 3.51 0 0 1 1.58-3c1.13-.92 2.22-1.87 3.27-2.87a6.18 6.18 0 0 0 1.93-3c.24-1-.37-1.35-1.81-1a20.61 20.61 0 0 0-5.94 3.18c-2.53 1.75-4.19 2.84-5 3.28a5.3 5.3 0 0 1-.86.35 29.11 29.11 0 0 1-6.23 3.89 16.41 16.41 0 0 1-3.76.75l-1.73.06a10.46 10.46 0 0 1-5.11-1 7.09 7.09 0 0 1-2.91-2.8 19.34 19.34 0 0 0-4.37 1.73 19.17 19.17 0 0 1-3.75 1.61 14.41 14.41 0 0 1-4 .53 4.87 4.87 0 0 1-3.13-1.4 4.62 4.62 0 0 1-1.36-2.57 49.84 49.84 0 0 1-4.81 3.1c-1.37.72-2.61 1.34-3.73 1.86a11.64 11.64 0 0 1-3.5 1l-1.78-.02-1.34-.88a4.87 4.87 0 0 1-1.6-2.07c-.22-.67-.39-1.16-.51-1.48a1.17 1.17 0 0 0-.7-.69c-.34-.14-.85 0-1.51.5a33.5 33.5 0 0 1-3 1.77 7.92 7.92 0 0 1-3.12 1.13 3.18 3.18 0 0 1-2-.51 2.81 2.81 0 0 1-1.14-1.35 1.79 1.79 0 0 1 .22-1.64 3.34 3.34 0 0 1 1.53-1.3c.67-.29.9-.63.68-1s-.84-.25-1.87.38a15.48 15.48 0 0 1-2.98 1.43q-.71.24-1.26.39c-2.47 1.1-2 .49-3.27 1.19s-2.79.81-4.64 1.37a28.32 28.32 0 0 1-6.75 1h-1.6a19.63 19.63 0 0 1-5.86-1.16 7 7 0 0 1-2.35-1.76 5.85 5.85 0 0 1-1-2.34 7.06 7.06 0 0 1-3.45 2.76 45.31 45.31 0 0 1-9.66 2.32H169c-2.22-.2-3.64-.57-4.27-1.13a5.32 5.32 0 0 1-1.43-1.88 8.27 8.27 0 0 1-.66-2.35 4.1 4.1 0 0 1 .27-1c-.5.31-1 .62-1.69.94a37.2 37.2 0 0 1-9.75 3.63c-2.79.52-4.9.94-6.35 1.27a31.67 31.67 0 0 1-5.07.68h-1.86a3.3 3.3 0 0 1-2.83-2.37 5.29 5.29 0 0 1 .33-3.55q.77-1.7 4.73-5.12c2.64-2.26 5.65-5.06 9-8.36a111.54 111.54 0 0 0-11.38.62q-7.61 6.2-13.27 10.38a52 52 0 0 1-8.45 5.42q-2.77 1.24-4.79 2a10.06 10.06 0 0 1-4.18.65H106a8 8 0 0 1-3.49-2.1c-.77-.87-1.41-2.71-2-5.52a20.72 20.72 0 0 1 .71-5.09 33.72 33.72 0 0 1 1.39-3.41 12.46 12.46 0 0 1 2.73-3.65 6.1 6.1 0 0 1 3.4-2 2.64 2.64 0 0 1 2.47 1 2.69 2.69 0 0 1 0 3 8.46 8.46 0 0 1-2.63 3.1 4.87 4.87 0 0 0-1.94 3.63 6.07 6.07 0 0 0 .67 3.88 3.29 3.29 0 0 0 3.24 1.36c1.53-.09 3.83-1 6.88-2.62a101.22 101.22 0 0 0 8.68-5.3 70.91 70.91 0 0 0 6.76-5.16c-6-.21-9-.78-9.13-1.71a2.11 2.11 0 0 1 1.15-2.17q1.29-.76 13.05-1.15 6.67-5.64 14.1-12.24t12.18-10.29q4.69-3.78 9.65-7.82h1.86a11.35 11.35 0 0 1 3.43 2.7q1.4 1.65-.71 4.59a56.76 56.76 0 0 1-6.24 7q-4.12 4.11-13.31 15.44c9.61-.78 7.53 3.33 3.77 3.54a48 48 0 0 0-8.11.93q-5.25 4.83-9.58 9.23t-4.58 5.12c-.17.47.77.68 2.82.62a77.56 77.56 0 0 0 7.73-.74 25.35 25.35 0 0 0 9.05-3.14c2.76-1.57 4.56-1.89 5.42-1 1.33-1.53 2.61-2.88 3.83-4a68 68 0 0 0 5.42-6 68 68 0 0 1 6.59-7.08 37 37 0 0 1 5.77-4.5 35.26 35.26 0 0 0 5.29-4.05l1.13-.12a8.85 8.85 0 0 1 2.41.68 3.81 3.81 0 0 1 1.49 1.15l.24 1.25A17 17 0 0 1 195 26.8a31.25 31.25 0 0 1-4.91 5.42q-2.76 2.41-5.29 4.59a20.66 20.66 0 0 1-5.3 3.37c-1.83.79-3.45 1.47-4.83 2a10.84 10.84 0 0 0-3.67 2.5 13.19 13.19 0 0 0-2.5 3.33 3.43 3.43 0 0 0-.38 2.86 2.16 2.16 0 0 0 2.19 1.22 20.85 20.85 0 0 0 4-.29c1.55-.24 3-.53 4.49-.87a16.18 16.18 0 0 0 3.81-1.37 35 35 0 0 0 3.58-2.83 7.92 7.92 0 0 1 .61-2.2 12.48 12.48 0 0 1 2.53-3.46 31.41 31.41 0 0 1 3.5-3.1 10.26 10.26 0 0 1 3.6-1.78l1.37-.07a5.86 5.86 0 0 1 3.21 1c.91.63 1.3 1.75 1.16 3.37a5.93 5.93 0 0 1-2.38 4.17 13.7 13.7 0 0 1-4.9 2.53c-1.83.51-2.81 1-2.94 1.4s.15.88.88 1.37a8.91 8.91 0 0 0 4.73 1.52 18.09 18.09 0 0 0 5.73-.26 37.59 37.59 0 0 0 4.8-1.22 13.31 13.31 0 0 1 2.95-.67c.21-.07.43-.15.69-.22a20.81 20.81 0 0 0 5.11-2.63 2.38 2.38 0 0 1 1.44-1.85 3.12 3.12 0 0 1 2.23 0c.73.25 1.81-.05 3.25-.91a34.29 34.29 0 0 0 5.14-4.07c2-1.85 3.16-3 3.52-3.38a2.79 2.79 0 0 1 1.34-.85 4.38 4.38 0 0 1 1.49.33 4.32 4.32 0 0 1 1.35 1.18 3.46 3.46 0 0 1 .84 2 1.66 1.66 0 0 1-1.08 1.69 24.68 24.68 0 0 1-3 1.2 19.86 19.86 0 0 0-3.21 1.4 10.42 10.42 0 0 0-2.38 1.78 6.51 6.51 0 0 0-1.35 1.84 1.17 1.17 0 0 0 .17 1.34c.34.39 1 .43 2.07.14a4.37 4.37 0 0 1 2.44-.13 1.41 1.41 0 0 1 1 1.27 4.11 4.11 0 0 1-.27 2 1.47 1.47 0 0 0 .21 1.64q.6.61 3.21-.18a12.32 12.32 0 0 0 4.75-2.76 10.78 10.78 0 0 1 3-2.16 1.42 1.42 0 0 1 1 0c.25-1 1.29-2.43 3.12-4.21a28.51 28.51 0 0 1 5.8-4.48c1.79-1 3.18-1.68 4.19-2.11a15 15 0 0 1 4.2-1c2.33.08 3.91.39 4.72.92a4 4 0 0 1 1.53 1.88 5.38 5.38 0 0 1 .29 2.35c-.05.87.32 1.21 1.13 1s1.24.19 1.28 1.16a4.65 4.65 0 0 1-1.16 3 16.8 16.8 0 0 1-1.93 2.21 1.16 1.16 0 0 0-.41 1.4 2.18 2.18 0 0 0 1.63 1.13 6.37 6.37 0 0 0 3.28-.17 10.87 10.87 0 0 0 3.38-1.49c.94-.63 2.89-1.31 4.06-2.14a1.51 1.51 0 0 1 .37-.25 18.41 18.41 0 0 0 3.62-2.65 28.94 28.94 0 0 1 5.74-3.82c2.2-1.13 3.93-2 5.17-2.56a10.82 10.82 0 0 1 4.08-1 3.31 3.31 0 0 1 2.34 2.35 6.11 6.11 0 0 1-.29 3.52c-.46 1.25-2.11 3.36-5 6.34l9.4-5.38a16 16 0 0 1 4.16-1.88 2.59 2.59 0 0 1 2.71 1q1.11 1.35 0 3.91c-.75 1.71-1 3-.75 3.81s2.16.76 5.71-.23a60.23 60.23 0 0 0 7.25-2.43l.92-1.12a36 36 0 0 1 3.18-3.4l3.24-3a19 19 0 0 1 3.6-2.5 17 17 0 0 1 3.93-1.55 9.2 9.2 0 0 1 3.14-.33 3.52 3.52 0 0 1 2.11 1 3 3 0 0 1 1 1.85 18.18 18.18 0 0 0 .29 2c.14.72.56.74 1.25.09a10.94 10.94 0 0 0 1.79-2.18c.49-.79 1.29-2 2.37-3.63a27.69 27.69 0 0 1 2.86-3.72q1.21-1.29 3.24-3.37t4.22-4.17a21.27 21.27 0 0 1 4.13-3.16 9.46 9.46 0 0 1 2.88-1.19 3.85 3.85 0 0 1 1.82.74 3.54 3.54 0 0 1 .74 1.64 11.6 11.6 0 0 1-2.47 4.15c-1.25 1.45-2.58 2.91-4 4.4a24.54 24.54 0 0 1-3.64 3.27 19.81 19.81 0 0 1-3 1.7 10.81 10.81 0 0 0-3.29 2.62c-1.2 1.29-2.46 2.68-3.81 4.17a22.44 22.44 0 0 0-2.86 3.72 13.14 13.14 0 0 1-1.81 2.57 3 3 0 0 0-1 1.87c0 .54.34.88 1 1a2.74 2.74 0 0 0 2.32-.8 7.91 7.91 0 0 1 3.63-1.46 9.82 9.82 0 0 0 3.6-1.11 9 9 0 0 1 3-1.12 8.9 8.9 0 0 1 .67-2.63 12.42 12.42 0 0 1 2.52-3.46 30.67 30.67 0 0 1 3.52-3.1 10.13 10.13 0 0 1 3.59-1.78l1.37-.07a5.86 5.86 0 0 1 3.21 1c.91.63 1.3 1.75 1.16 3.37a6 6 0 0 1-2.38 4.17 13.75 13.75 0 0 1-4.91 2.53c-1.82.51-2.8 1-2.94 1.4s.16.88.9 1.37 2.37.81 4.93 1a21.05 21.05 0 0 0 6.27-.42 22.84 22.84 0 0 0 3.95-1.33c1-.48 3.58-1.9 4.17-2.07a40.9 40.9 0 0 0 5.35-4.88c2.79-3 5-4.78 6.5-5.36A14.52 14.52 0 0 1 401 36a4.34 4.34 0 0 1 1.84.47 1.85 1.85 0 0 1 1 1.4 5.78 5.78 0 0 1-.06 2.18A8.2 8.2 0 0 1 402.3 43a11.79 11.79 0 0 1-2.82 2.86 8.87 8.87 0 0 0-2.26 2.11 1.7 1.7 0 0 0-.09 1.88c.36.61 1.74.67 4.13.18a43.84 43.84 0 0 0 5.33-1.37c1.14-.42 1.6-.58 2.91-1.16 2.92-1.17 1.5 2.33 1.5 2.33-2.91 1.29-5.48 2.44-7.74 3.4zM153.49 29.84a11.36 11.36 0 0 0 2.59-2.11 39.46 39.46 0 0 0 3.76-4.73 51.89 51.89 0 0 1 5.45-6.42 67.82 67.82 0 0 1 5.52-5.1c1.54-1.23 2.37-2.31 2.47-3.22s-.51-1.09-1.86-.55a13.28 13.28 0 0 0-3.86 2.44q-1.86 1.65-6.19 4.9t-7.88 6.42a113.84 113.84 0 0 0-9 9.23 27 27 0 0 0 5.9 0 10.4 10.4 0 0 0 3.1-.86zm26.11 7.84a34.91 34.91 0 0 0 4.79-3.4 26.91 26.91 0 0 0 3.83-3.78 4.14 4.14 0 0 0 1.21-2.72c-.07-.67-.52-.93-1.33-.77a9.72 9.72 0 0 0-3.24 1.64 25.64 25.64 0 0 0-4.25 3.84q-2.24 2.44-3.6 3.75a11 11 0 0 0-2.2 3 11.72 11.72 0 0 0 4.79-1.56zm16.52 5.42c.82-.72 1.16-1.37 1-2s-.79-.58-2 .06a6.81 6.81 0 0 0-2.54 1.94 20.53 20.53 0 0 0-1.33 2.23 15.06 15.06 0 0 0 4.87-2.23zm67.39-1.73c-.33-.79-1.13-1.13-2.38-1a11 11 0 0 0-4 1.32 23.87 23.87 0 0 0-4.38 3 9.5 9.5 0 0 0-2.82 3.31 1.77 1.77 0 0 0 .35 2.24c.64.51 1.65.55 3 .12a27.94 27.94 0 0 0 4.31-1.82 31.57 31.57 0 0 0 4-2.45 4.92 4.92 0 0 0 2.08-2.38 3.41 3.41 0 0 0-.16-2.34zm76.28-.66c-.41-.39-1.08-.36-2 .09a17.93 17.93 0 0 0-3.39 2.44q-2 1.77-3.72 3.55a41.21 41.21 0 0 0-3.21 3.87c-1 1.39-1.32 2.28-1 2.65s1.48.12 3.31-.8a56.49 56.49 0 0 0 5.22-3 12.68 12.68 0 0 0 3.63-3.22 8.25 8.25 0 0 0 1.43-3.3c.26-1.11.15-1.88-.27-2.28zM368 43.1c.82-.72 1.16-1.37 1-2s-.79-.58-2 .06a6.79 6.79 0 0 0-2.52 1.94 19 19 0 0 0-1.34 2.23A15.18 15.18 0 0 0 368 43.1zM107 75.55c1.2.24 2.42.55 3.65.9a11.7 11.7 0 0 0 1.94.49 4.59 4.59 0 0 1 1.87.71l.85.61c1 .62 2 1.21 2.78 1.76a10.1 10.1 0 0 1 2.12 1.85 8.36 8.36 0 0 1 1.38 2.39 11.53 11.53 0 0 1 .63 3.41 11.75 11.75 0 0 0 .28 1.83 8.6 8.6 0 0 1 .18 1.83 1.63 1.63 0 0 1-.09.65 1.67 1.67 0 0 1-.25.43l-.32.38a1.93 1.93 0 0 0-.33.54 3 3 0 0 0-.27.9c-.06.35-.11.7-.16 1s-.11.68-.19 1a2 2 0 0 1-.31.75 5.39 5.39 0 0 1-1.55 1.5 9.73 9.73 0 0 0-1.71 1.39 2.45 2.45 0 0 1-1.08.94l-1.46.72a5.32 5.32 0 0 0-1.29.84 1.75 1.75 0 0 0-.56 1.35.94.94 0 0 0 .16.62 2.81 2.81 0 0 0 .34.35l.43.31a1.46 1.46 0 0 1 .42.46 4.53 4.53 0 0 0 .35.58c.2.31.42.63.67 1l.67 1a2.37 2.37 0 0 0 .38.49 36.29 36.29 0 0 1 2.56 3.77 24.39 24.39 0 0 0 2.6 3.62l1.75 2a7.64 7.64 0 0 0 2 1.65 1.32 1.32 0 0 1 .53.58 10.36 10.36 0 0 1 .45.94l.42 1a2.87 2.87 0 0 0 .48.8c1 .7 1.88 1.31 2.71 1.85s1.7 1.15 2.6 1.82a6.92 6.92 0 0 0 1.44.73 13.22 13.22 0 0 1 1.58.69 4.71 4.71 0 0 1 1.27.94 2 2 0 0 1 .52 1.41 1 1 0 0 1-.68 1 4.64 4.64 0 0 1-1.48.23h-5.65a5.83 5.83 0 0 0-2.35-.55q-1.16 0-2.61-.18a2.79 2.79 0 0 1-.79-.25c-.32-.14-.65-.31-1-.5s-.69-.4-1-.62L121 129l-.2-.11a23.57 23.57 0 0 1-4.11-4.36 28.94 28.94 0 0 1-3-5.12l-.54-1.39a4 4 0 0 0-.54-.79l-.71-.81-.71-.77a2.51 2.51 0 0 1-.5-.71l-.85-1.39-2.88-3.16a3.53 3.53 0 0 0-1.06-2.17 11.4 11.4 0 0 0-2.3-1.91 13.85 13.85 0 0 0-2.73-1.35 7.35 7.35 0 0 0-2.33-.5 4.69 4.69 0 0 0-1 .11 5.23 5.23 0 0 0-1.14.37 3.63 3.63 0 0 0-1 .63 1.2 1.2 0 0 0-.4.89l.27 1.47a1.59 1.59 0 0 1-.14.77 1.12 1.12 0 0 0-.13.57 8.75 8.75 0 0 0 0 1 6.65 6.65 0 0 0 .23 1l-.23 6.11.08.8V123.12a1.5 1.5 0 0 0 .31.81 1.73 1.73 0 0 0 .73.65l1.81 1.2a3.22 3.22 0 0 0 1.38.53 15.81 15.81 0 0 0 1.79.24l1.88.13a8.19 8.19 0 0 1 1.69.27 3.24 3.24 0 0 1 1.23.62 1.4 1.4 0 0 1 .49 1.13 1.51 1.51 0 0 1-.45 1.06 4.27 4.27 0 0 1-1 .83 5.56 5.56 0 0 1-1.25.54 3.9 3.9 0 0 1-1.11.19 4.57 4.57 0 0 1-1.14-.13c-.34-.09-.69-.19-1-.31l-1.08-.35c-.37-.11-.76-.21-1.17-.29-.93-.18-1.84-.34-2.75-.48a23.77 23.77 0 0 1-3.1-.71 3 3 0 0 0-.9.14 4.55 4.55 0 0 1-1.1.13l-2.73-.27a1.45 1.45 0 0 0-.9.41 1.55 1.55 0 0 1-1 .4l-6.27-.23a1.15 1.15 0 0 1-.38-.77 1.65 1.65 0 0 1 .9-1.47 9 9 0 0 1 2.08-.88c.78-.23 1.54-.43 2.27-.58a3.76 3.76 0 0 0 1.48-.54 2.43 2.43 0 0 0 .42-1.4 5.11 5.11 0 0 1 .15-1.34 1 1 0 0 0 .41-.3c.14-.16.23-.23.29-.23a6.7 6.7 0 0 0 .44-2c.06-.77.1-1.53.1-2.27v-1.66a5 5 0 0 0-.18-1.41 4.6 4.6 0 0 1-.17-1.25l.81-6.93-.62-3.74-.19-.89v-.19-.4-.62a5.92 5.92 0 0 1 .06-.62 2.79 2.79 0 0 1 .07-.4 1.38 1.38 0 0 0 .54-.31A.73.73 0 0 0 88 99l-.46-2.38.46-2.06s0-.16.09-.42a2.23 2.23 0 0 0 .1-.54l-.19-1v-1.15l.14-2.45-.65-5.85v-.82a17.05 17.05 0 0 0-1.66-1.77 9.5 9.5 0 0 0-1.73-1.25 13.76 13.76 0 0 0-2-.91 24.25 24.25 0 0 0-2.44-.73.62.62 0 0 1-.54-.66c0-.35.24-.66.71-.92a7.18 7.18 0 0 1 1.64-.62 14.74 14.74 0 0 1 1.81-.34 10.53 10.53 0 0 1 1.24-.13l2.28.19 2.41-.19 3.39.74a7.71 7.71 0 0 0 2-.28 8.45 8.45 0 0 1 2.2-.27l3.19.35 3.27-.35a19.1 19.1 0 0 1 3.74.36zm-7.31 3.56l-1.08.18c-.38.06-.73.12-1 .19a2.15 2.15 0 0 0-.6.17 2.84 2.84 0 0 0-.21.29l-.27.44-.25.45a2.8 2.8 0 0 0-.15.29v1.08a21 21 0 0 1-.39 4.06 63.18 63.18 0 0 1-.92 4.07l-.54.77.81 1a7.27 7.27 0 0 1 .11.79c.06.4.11.71.16.94v.54s-.11 0-.18.16a.59.59 0 0 0-.09.31 1.94 1.94 0 0 0 .09.38.73.73 0 0 0 .18.35L94.52 99a3.36 3.36 0 0 0 .33 1.54 3.13 3.13 0 0 0 .9 1.11 4.16 4.16 0 0 0 1.33.67 5.39 5.39 0 0 0 1.55.23H100c.07-.41.46-.77 1.13-1.06a17.21 17.21 0 0 1 2.27-.77c.84-.22 1.66-.4 2.46-.56a9.25 9.25 0 0 0 1.75-.46 5.53 5.53 0 0 0 1.54-1.06c.51-.48 1-1 1.38-1.41l1.27-2.42a11.89 11.89 0 0 0 1-2.09 7.21 7.21 0 0 0 .36-2.31 1.44 1.44 0 0 0-.13-.6c-.09-.19-.19-.38-.29-.57s-.2-.4-.29-.62a2 2 0 0 1-.14-.75c.16-.7.25-1.12.27-1.27a2.13 2.13 0 0 0 0-.39v-.38c0-.11-.12-.26-.36-.47a1.15 1.15 0 0 1-.41-.46 11.42 11.42 0 0 0-2.11-2.83 9.77 9.77 0 0 0-2.64-1.81 12 12 0 0 0-3.11-1 20.37 20.37 0 0 0-3.59-.3 6.24 6.24 0 0 0-.65.15zm-16-23.62a4.62 4.62 0 0 0-1.58 1.25 1.67 1.67 0 0 1-1.37.66 3.71 3.71 0 0 1-.89-.12A2.6 2.6 0 0 1 78 55.73a1.76 1.76 0 0 1-.12-.66 4.47 4.47 0 0 1 .83-2.26 18.29 18.29 0 0 1 2.23-2.38 3.76 3.76 0 0 1 4.49 0 2.27 2.27 0 0 1 .89 2v.3a2.2 2.2 0 0 1-1 1.94c-.53.33-1.08.58-1.61.82zM51.45 35.34c-1.44 1.7-1.84 2.48-3.09 3.4s-2.11 1.54-2.54 1.82-6.76 5.85-6.09 6.72 12.39 1.85 14.54 2.44C59.71 51.23 63.09 52 65 52a5.41 5.41 0 0 0 4.23-1.65 6.12 6.12 0 0 0 1.34-4.14 9.19 9.19 0 0 0-.81-4.13A5.38 5.38 0 0 0 68.14 40a2.48 2.48 0 0 1-1-1.9 3.33 3.33 0 0 1 .75-2.49c.61-.76 2.07-2 3.16-1.4s1.61 2.94 2.75 4.92a17.19 17.19 0 0 1 2.14 6.81 12.43 12.43 0 0 1-1.39 7.24q-1.8 3.42-4.22 4.22a13 13 0 0 1-4.49.75 25 25 0 0 1-4.37-.55c-1.53-.32-12.86-3.36-18.25-3.52-2.67-.08-10.32-.08-16.31.42-2.59.23-3.34.13-4.74 1.35s-3.48 2.43-4.09.34C13.39 49 33.85 42.8 35.17 41.79c2.39-1.83 4-3.51 5.65-4.84S44.37 34.3 46 33.2s3.13-3 5-4.23 3.7-3.66 5.22-5 5.21-4.61 5.21-4.61c.71-1.17 7.59-5.34 7-5.36-7.73-.24-12.47-.38-20.81-2.19-5.69-1.24-6.33-4.3-12.93-3.39-2.91.4-4.4 4.49-6.47 5.21-1.72.6-2.8.28-3.57-3.78 0-.66.68-1.43 1.69-2.19a22.07 22.07 0 0 1 5.6-3.28C37.1 3.22 38.74 3 42.2 4.1c2.82.88 5.58 2.81 10 3.83 6 1.39 16.4 1.13 22.16-3.13 2.19-1.6 4.58-4.91 6.95-4.61 3.69-1.12 5.08 2.9 2.54 5.63-9.96 10.77-22.92 18.29-32.4 29.52zm-25 41.38l1.55-.19a21.1 21.1 0 0 0 2.74.93 26 26 0 0 1 2.59.8 13.18 13.18 0 0 1 2.38 1.18 7.29 7.29 0 0 1 2.06 2c.57.83 1 1.54 1.44 2.14a11.12 11.12 0 0 1 1 1.81 8.28 8.28 0 0 1 .56 2 15 15 0 0 1 .18 2.5 13 13 0 0 1-.28 2.49 10 10 0 0 1-.8 2.49 5.76 5.76 0 0 1-.87 1.04 7.78 7.78 0 0 1-.94.78 11.94 11.94 0 0 1-1.06.65c-.37.2-.76.44-1.17.69l-.42.81a1.65 1.65 0 0 1-1 .5c-.48.11-1 .22-1.44.35a5 5 0 0 0-1.31.54 1.16 1.16 0 0 0-.58 1.08c0 .23.23.44.69.62a13.37 13.37 0 0 0 1.6.49c.6.16 1.19.3 1.77.43a8.48 8.48 0 0 1 1.25.35 17.87 17.87 0 0 1 2 1.17c.58.4 1.2.81 1.86 1.21l1.27.85a22 22 0 0 0 1.27 2.12c.49.72 1 1.46 1.4 2.22a15.41 15.41 0 0 1 1.14 2.35 7.21 7.21 0 0 1 .46 2.52c0 1 0 1.85-.1 2.7a5.32 5.32 0 0 1-.63 2.24 7.42 7.42 0 0 1-.73 1c-.36.42-.78.9-1.25 1.42s-1 1.07-1.54 1.64-1.08 1.08-1.6 1.56a17.68 17.68 0 0 1-1.44 1.23 3.44 3.44 0 0 1-1.09.64 6.79 6.79 0 0 0-1.85.17 2.45 2.45 0 0 1-.69.18q-2 .65-3.69 1.08a21.51 21.51 0 0 1-3.69.57l-1.74.58a5.89 5.89 0 0 0-2.11-.39 6.7 6.7 0 0 0-2.35.39c-1.48-.13-2.94-.25-4.37-.35s-2.94-.15-4.51-.15a19.37 19.37 0 0 0-3.75.37 21.35 21.35 0 0 1-4 .36c-.13 0-.42 0-.9-.09a11.67 11.67 0 0 1-1.5-.33 7 7 0 0 1-1.42-.6 1 1 0 0 1-.65-.86v-.19a2.85 2.85 0 0 1 .61-.33c.34-.14.74-.29 1.2-.44s1-.31 1.46-.46l1.46-.43a21.663 21.663 0 0 0 1.73-.53 7.6 7.6 0 0 0 1-2 10.68 10.68 0 0 0 .5-2.08c.1-.71.18-1.43.21-2.16s.1-1.48.18-2.25c.17-.59.32-1.16.44-1.69a8.6 8.6 0 0 0 .17-1.7 2.23 2.23 0 0 0-.3-1.16 2.05 2.05 0 0 1-.31-1.12 6.79 6.79 0 0 1 .31-2 6.81 6.81 0 0 0 .3-1.91 2.62 2.62 0 0 0 0-.52 2.59 2.59 0 0 0-.09-.4 2.79 2.79 0 0 1-.1-.39 2.23 2.23 0 0 1 0-.5A2 2 0 0 1 9 106a2.92 2.92 0 0 1 .23-.54c.09-.17.16-.34.23-.5a1.46 1.46 0 0 0 .09-.56l-1-3.93a1.53 1.53 0 0 1 .31-1 1.76 1.76 0 0 0 .3-1.07l-.24-1.1v-2.46a.86.86 0 0 0-.08-.33 2.78 2.78 0 0 0-.19-.44c-.07-.16-.14-.3-.19-.43a.81.81 0 0 1-.07-.27 7.22 7.22 0 0 1 .19-1.77 6.76 6.76 0 0 0 .19-1.54l-.19-6.13a2.33 2.33 0 0 0-.43-.62 2.48 2.48 0 0 0-.49-.38l-.6-.33a3.29 3.29 0 0 1-.68-.48 3.22 3.22 0 0 0-1.73-1.31 20 20 0 0 0-2.11-.56 8.22 8.22 0 0 1-1.79-.56A1.3 1.3 0 0 1 0 78.38a1.19 1.19 0 0 1 .56-1.06 4.12 4.12 0 0 1 1.33-.54 10 10 0 0 1 1.53-.21H7.5c.54 0 1 0 1.52.08s.87.09 1.21.15a1.16 1.16 0 0 1 .58.21l12.41-.46zm-10.11 38a11.36 11.36 0 0 1 .27 2.51l-.27 1.38.54 1.81c.07 1 .12 1.78.15 2.33a4.31 4.31 0 0 0 .21 1.31 1.65 1.65 0 0 0 .63.81 11.4 11.4 0 0 0 1.47.83c.25.13.45.25.61.35l.5.3a14.38 14.38 0 0 1 1.56.81 3.24 3.24 0 0 0 1.74.47 2.63 2.63 0 0 0 1.18-.23 2.17 2.17 0 0 1 1.05-.24l1.78.2a2.67 2.67 0 0 0 1-.24 6.69 6.69 0 0 0 1.09-.57 11 11 0 0 0 1-.73 7.3 7.3 0 0 0 .79-.74 2.21 2.21 0 0 0 .55-.4c.25-.22.5-.46.76-.71s.49-.51.71-.76.39-.41.51-.52a4.36 4.36 0 0 1 .48-1c.22-.34.43-.68.62-1a9 9 0 0 0 .52-1.08 3 3 0 0 0 .21-1.31c0-1.13 0-2.27-.13-3.41a18.91 18.91 0 0 0-.56-3.31 13.12 13.12 0 0 0-1.21-3A8.72 8.72 0 0 0 32 106a15.54 15.54 0 0 0-2.4-1.44 8.32 8.32 0 0 0-2.67-.75H25a17.77 17.77 0 0 1-2.84-.49 10.32 10.32 0 0 0-2.59-.32l-2.22.23c-.06.1-.13.25-.22.44l-.27.62c-.08.22-.18.41-.26.59a1.89 1.89 0 0 1-.25.39 2.9 2.9 0 0 0 .13 1 2.41 2.41 0 0 1 .14.83l-.62 5.34a9.62 9.62 0 0 0 .31 2.24zm6.28-34.33c-.29-.16-.59-.33-.86-.5a5.58 5.58 0 0 0-.91-.47 2.67 2.67 0 0 0-1-.19 1.87 1.87 0 0 0-.79.27 6.75 6.75 0 0 0-1 .67 8.58 8.58 0 0 0-.93.84 1.72 1.72 0 0 0-.47.77v1.57l.27 3.09a6.6 6.6 0 0 1-.14 1.29L16.44 89l-.27 1.31a5.58 5.58 0 0 0-.17 1.21 27.63 27.63 0 0 0 .42 4.86c.28 1.57.48 3.08.61 4.54l.5.66 2.19-.73c.9-.11 1.85-.2 2.83-.27s1.94-.12 2.87-.12h1a2.92 2.92 0 0 1 .46 0 13.87 13.87 0 0 0 2-2.1A21.62 21.62 0 0 0 30.56 96a28.87 28.87 0 0 0 1.28-2.62c.38-.89.74-1.77 1.08-2.62v-.65l-.54-1a25.29 25.29 0 0 0-1-2.77 11.68 11.68 0 0 0-1.38-2.6 8.58 8.58 0 0 0-2-1.95 5.82 5.82 0 0 0-2.75-.94h-.33l-.52-.06a3.8 3.8 0 0 1-.5-.06h-.3a3.12 3.12 0 0 1-1.01-.38zM165 102.08c.09-.93.2-1.73.33-2.43a16.81 16.81 0 0 0 .49-2.06c.13-.73.23-1.46.31-2.2s.13-1.42.16-2.08 0-1.21 0-1.67a7.81 7.81 0 0 1 .84-.93c.28-.26.54-.51.77-.75a3.45 3.45 0 0 0 .58-.85 4.27 4.27 0 0 0 .34-1.21l2.18-2.2 1-.46a1.79 1.79 0 0 0 .53-.54 11.16 11.16 0 0 0 .64-1q.33-.57.66-1.08a3.2 3.2 0 0 1 .63-.79q2.19-1.57 4.32-2.93t4.67-2.62a2.85 2.85 0 0 0 .39-.11l.36-.08a1.23 1.23 0 0 1 .29 0 2.7 2.7 0 0 0 1-.29c.26-.14.51-.28.73-.42s.49-.27.75-.39a2.62 2.62 0 0 1 1-.17l1.88.31.58-.31 1.42-.43a33 33 0 0 1 3.36-.27h3.33a11 11 0 0 1 1.79.24c.83.15 1.7.34 2.61.56s1.75.44 2.52.67a11.28 11.28 0 0 1 1.54.54 10.07 10.07 0 0 1 2 1.85 12.23 12.23 0 0 0 1.9 1.85 8.69 8.69 0 0 0 1.21.77l1.17.6c.39.19.77.4 1.16.61a6.05 6.05 0 0 1 1.11.83 1.87 1.87 0 0 1 .47.31 6.4 6.4 0 0 1 .53.52q.27.28.48.54l.33.37.27 1.19a1.82 1.82 0 0 0 .4.87c.22.27.47.54.73.81s.53.53.78.79a1.9 1.9 0 0 1 .48.81q.3.45.69 1.17c.25.47.51 1 .77 1.52s.47 1.08.65 1.6a7.33 7.33 0 0 1 .34 1.37v2.27c.11.44.21.79.29 1a3.86 3.86 0 0 0 .41.81c.1.28.19.56.27.83a3.91 3.91 0 0 1 .11 1.06 2 2 0 0 1 0 .27 2.65 2.65 0 0 0-.06.42c0 .16 0 .3-.06.45a1.6 1.6 0 0 0 0 .33l.38 1-.19 1.66a1.32 1.32 0 0 1 .08.47v.61a14 14 0 0 1-.15 2.18 4.77 4.77 0 0 1-.31 1.21 18.38 18.38 0 0 1-1 2.28c-.35.69-.72 1.37-1.11 2.06s-.76 1.38-1.13 2.1a22.37 22.37 0 0 0-1.06 2.35 1.56 1.56 0 0 1-.46.34 3.05 3.05 0 0 1-.46.2 1.8 1.8 0 0 0-.46.23 1.55 1.55 0 0 0-.43.42 4.06 4.06 0 0 0-.25.51l-.31.67c-.11.24-.23.48-.36.71a2.43 2.43 0 0 1-.43.58l-.78.47a.85.85 0 0 0-.6.29.81.81 0 0 0-.29.52c-.18.23-.43.55-.77 1s-.69.8-1.07 1.23-.76.82-1.12 1.17a10.55 10.55 0 0 1-.88.81l-.46.27-.37.16a.68.68 0 0 1-.25.07l-4.26 1.47a3.56 3.56 0 0 0-.39.48.81.81 0 0 1-.23.25 1.13 1.13 0 0 1-.27.13 3.84 3.84 0 0 1-.5.14l-2.54.23-2.73 1.19a5.54 5.54 0 0 1-.69.12l-.63.06h-.64a7.24 7.24 0 0 1-1-.1l-1.25-.21-1.29-.25-1.13-.25a7.72 7.72 0 0 0-1.61-.23h-1.7c-1 0-1.91 0-2.81-.1a8.68 8.68 0 0 1-2.65-.63l-.57-.81a6.21 6.21 0 0 0-1-.18 9.87 9.87 0 0 1-1.18-.17 6.89 6.89 0 0 1-1.11-.31 1.64 1.64 0 0 1-.79-.57c-.39-.47-.69-.86-.92-1.18s-.47-.6-.69-.85a4.81 4.81 0 0 0-.87-.69 10.6 10.6 0 0 0-1.44-.72l-1.19-.26a2.75 2.75 0 0 1-.85-.77 13.14 13.14 0 0 1-.93-1.35c-.3-.52-.62-1.07-.94-1.66s-.6-1.16-.86-1.71l-.69-1.49c-.21-.43-.36-.77-.47-1a2.82 2.82 0 0 0-.86-1.33l-1-.77a3.32 3.32 0 0 1-.81-1 4.35 4.35 0 0 1-.34-2 2.08 2.08 0 0 1 .26-1 2.14 2.14 0 0 0 .27-1.06l-1-4.28c-.02-.82.02-1.66.11-2.58zm8.73 1.65a9.18 9.18 0 0 0 .67 1.28c.26.41.49.82.71 1.23a3.79 3.79 0 0 1 .41 1.35.94.94 0 0 1 .07.46l-.07 1.85a4.4 4.4 0 0 0 .07.77 2 2 0 0 0 .39.85 1.51 1.51 0 0 0 .5.59l.52.35a3.47 3.47 0 0 1 .46.41 1.55 1.55 0 0 1 .32.73v1.58a2.57 2.57 0 0 0 .2 1.08.81.81 0 0 0 .57.54 1.27 1.27 0 0 1 .69.46 18.59 18.59 0 0 0 1.16 2.49 7.21 7.21 0 0 0 1.58 1.83c.89.72 1.81 1.41 2.75 2.08a26.29 26.29 0 0 0 2.9 1.79 16.54 16.54 0 0 0 3.15 1.25 12.92 12.92 0 0 0 3.5.46 3.37 3.37 0 0 0 .84-.08 6.75 6.75 0 0 0 .68-.18l.67-.24c.23-.07.51-.15.85-.23.71-.1 1.53-.22 2.44-.37a16.47 16.47 0 0 1 2.48-.21 14.84 14.84 0 0 1 1.81-1.16 52.2 52.2 0 0 0 2-1.13 12.69 12.69 0 0 0 1.8-1.33 5.49 5.49 0 0 0 1.33-1.73l2-4a2.28 2.28 0 0 0 .79-1 9.36 9.36 0 0 0 .4-1.27c.1-.44.22-.87.33-1.31a2.9 2.9 0 0 1 .59-1.16l.81-5.31a7.09 7.09 0 0 0-.09-1.16 7.05 7.05 0 0 1-.1-1.31l.46-1.28a4.67 4.67 0 0 0-.29-1.48q-.28-.86-.69-1.77c-.27-.6-.54-1.19-.83-1.77s-.52-1.06-.72-1.45l-.39-.65.19-1.08a2.51 2.51 0 0 0-.19-1 6.12 6.12 0 0 0-.42-.81l-.47-.73a2.36 2.36 0 0 1-.3-.83l-.35-1.89a9 9 0 0 0-1.42-2.52 28.63 28.63 0 0 0-2.49-2.91 24.23 24.23 0 0 0-2.72-2.44A7.54 7.54 0 0 0 201 80a6 6 0 0 0-1.58-.23h-1.61l-1-1.23a9.66 9.66 0 0 0-.94-.33l-1.43-.42a13.75 13.75 0 0 0-1.48-.35 6.73 6.73 0 0 0-1.11-.14 15.2 15.2 0 0 0-2 .16 20.67 20.67 0 0 0-2.48.46 14.07 14.07 0 0 0-2.35.77 4.13 4.13 0 0 0-1.58 1.08l-.18.61a2.79 2.79 0 0 1-.64.37 6 6 0 0 0-.62.31 2.22 2.22 0 0 0-.49.42 1.75 1.75 0 0 0-.33.75 5.65 5.65 0 0 0-1.22.43 1.23 1.23 0 0 0-.45.42c-.1.16-.19.33-.29.52a2.82 2.82 0 0 1-.7.72 7.77 7.77 0 0 0-2.42 2.58 13.51 13.51 0 0 0-1.4 3.43 22.57 22.57 0 0 0-.65 3.79q-.18 1.95-.18 3.6l.19 2.74a1.65 1.65 0 0 1-.3.83 1.82 1.82 0 0 0-.31 1 3.34 3.34 0 0 0 .28 1.44zm81.11-27.1c.34-.09.69-.17 1-.23a6.61 6.61 0 0 1 1.08-.12h1l.54.12a2 2 0 0 0 .39.07h.08a19 19 0 0 0 3.2-.28c1.12-.19 2.18-.34 3.17-.44l3.05.34 2.34-.34 4.19.53a1.18 1.18 0 0 1 .91.79 5.83 5.83 0 0 1 .13 1.21V79l-.47.58h-3.73a9.29 9.29 0 0 1-1 .53 4.76 4.76 0 0 0-.87.55 2.37 2.37 0 0 0-.62.77 2.85 2.85 0 0 0-.22 1.23 1.33 1.33 0 0 0 .15.63 3 3 0 0 0 .35.54c.12.17.26.34.4.52a1.86 1.86 0 0 1 .29.58 14.49 14.49 0 0 1 .34 1.72c.08.55.16 1.11.23 1.69s.19 1.16.33 1.74a12.88 12.88 0 0 0 .59 1.79c.06.15.19.43.39.85l.64 1.29c.21.45.41.87.59 1.27a2.48 2.48 0 0 1 .27.83l.54 4.16 1.77 2.5a1.93 1.93 0 0 1 .08.33c0 .17 0 .35.07.54s.05.37.08.54 0 .27 0 .33a22.57 22.57 0 0 0 .56 2.66 16.55 16.55 0 0 0 .9 2.54l.73 1.38c.05.11.13.27.25.49l.37.65c.12.22.25.42.36.6a2.17 2.17 0 0 0 .25.35 2 2 0 0 1 .3.71c.08.3.17.57.25.84a2.69 2.69 0 0 0 .35.7.72.72 0 0 0 .6.29 1.71 1.71 0 0 0 .83-.23 3 3 0 0 0 .9-1 3 3 0 0 1 .39-.52l.67-.81c.24-.3.46-.58.67-.83a4.43 4.43 0 0 0 .42-.58 3.49 3.49 0 0 1 .21-1.24 9.75 9.75 0 0 1 .5-1c.2-.3.39-.61.6-.92a5.44 5.44 0 0 0 .54-1.08l1.53-4.74c.11-.38.24-.77.39-1.15s.3-.77.44-1.16a10.52 10.52 0 0 0 .37-1.2 5.61 5.61 0 0 0 .15-1.34 4.87 4.87 0 0 0-.27-1.62c-.18-.51-.37-1-.57-1.52s-.4-1-.58-1.52a5 5 0 0 1-.23-1.66v-.24l-1.92-5.42-.81-1.51a11.34 11.34 0 0 1-.6-2.25 9.36 9.36 0 0 0-.59-2.18 1.21 1.21 0 0 0-.9-.6l-1.43-.27a4.55 4.55 0 0 1-1.32-.42 1.07 1.07 0 0 1-.58-1.06 1.21 1.21 0 0 1 .46-1.1 2.08 2.08 0 0 1 1.11-.29h1.54a8.7 8.7 0 0 1 1.54.23l1.12.14a12.47 12.47 0 0 0 1.27 0h1.19a5.22 5.22 0 0 0 1.19-.07 4.47 4.47 0 0 1 1.33-.33c.44 0 .89-.06 1.32-.06h.81a12.08 12.08 0 0 0 1.42.17h.58c1.18-.28 2.18-.51 3-.67a12.66 12.66 0 0 1 2.57-.25 3.68 3.68 0 0 1 .45 0 3.21 3.21 0 0 1 .63.14 2.33 2.33 0 0 1 .56.22.4.4 0 0 1 .25.33 6.24 6.24 0 0 1 .4.7 1.44 1.44 0 0 1 .17.69 1.4 1.4 0 0 1-.17.65 6.24 6.24 0 0 1-.4.7c-.18.13-.37.25-.58.38a1 1 0 0 1-.5.2l-1.57-.47a7.22 7.22 0 0 0-1.72.23 6.28 6.28 0 0 0-1.66.7 4.12 4.12 0 0 0-1.28 1.17 3 3 0 0 0-.5 1.72v.58a21.183 21.183 0 0 1 .5 2.67 27.64 27.64 0 0 1 .23 2.68l.08.74a3.23 3.23 0 0 0 .23 1c.15.4.33.83.52 1.27s.39.85.6 1.25l.46.94c.2.65.39 1.31.55 2l.51 2.09c.16.71.34 1.41.52 2.11a12.39 12.39 0 0 0 .68 2v2a4.14 4.14 0 0 0 .18 1.27.53.53 0 0 0 .13.27c.09.14.19.27.29.43l.29.42a.61.61 0 0 1 .13.27 2 2 0 0 0 .14.43q.13.34.27.75l.26.73a2 2 0 0 1 .14.36 7.56 7.56 0 0 1 .15.79 7.94 7.94 0 0 0 .24 1 3.71 3.71 0 0 0 .4.9.77.77 0 0 0 .68.39 2.27 2.27 0 0 0 1.49-.45 3.15 3.15 0 0 0 .87-1.1 12.2 12.2 0 0 0 .56-1.34 6.69 6.69 0 0 1 .53-1.23l1-1.28a.69.69 0 0 0 .14-.31 3.42 3.42 0 0 0 .08-.51v-.55a2.79 2.79 0 0 0 0-.36 1.52 1.52 0 0 1 .41-.41l.4-.32a2.51 2.51 0 0 0 .37-1c.08-.47.21-1 .34-1.55s.31-1.13.5-1.7a3.9 3.9 0 0 1 .79-1.39 2.19 2.19 0 0 0 .31-.44 1.2 1.2 0 0 0 .15-.37c0-.1.08-.31.16-.61l.23-1c.07-.34.14-.66.19-1a4.14 4.14 0 0 0 .07-.56l.47-.54a1.58 1.58 0 0 0 .38-.1c.13-.28.27-.62.44-1s.33-.81.5-1.24a10.65 10.65 0 0 0 .37-1 7.55 7.55 0 0 1 1.19-1.81 5.73 5.73 0 0 0 1.07-1.89l.47-2.82c.22-.51.39-.87.49-1.08a1.49 1.49 0 0 0 .16-.73 2.69 2.69 0 0 0 0-.59c0-.12-.05-.23-.08-.33a1.16 1.16 0 0 0-.67-.91 3.53 3.53 0 0 0-.59-.21l-1.89-.5h-1.87l-.92-.06c-.33 0-.7-.06-1.11-.11-.13-.21-.27-.47-.42-.77a2 2 0 0 1-.24-.89 1.25 1.25 0 0 1 .43-.89 4.84 4.84 0 0 1 1-.75 8.5 8.5 0 0 1 1.15-.54 2.82 2.82 0 0 1 .88-.21c1 0 2 0 3.16.14a9.59 9.59 0 0 1 3.15.78l3.35-.72a1.11 1.11 0 0 1 .8.36 1.14 1.14 0 0 0 .73.36.58.58 0 0 0 .37-.17 1.17 1.17 0 0 1 .36-.21 21.24 21.24 0 0 1 2.41-1 7.61 7.61 0 0 1 2.52-.44.94.94 0 0 1 .71.29 1 1 0 0 1 .29.79 2.22 2.22 0 0 1-.14.7 3.65 3.65 0 0 1-.38.8 2.65 2.65 0 0 1-.56.63 1 1 0 0 1-.66.25 2.26 2.26 0 0 0-.8.41l-.73.55a8.17 8.17 0 0 1-.71.49 1.52 1.52 0 0 1-.75.21H325.02a1.31 1.31 0 0 0-.29.1 4.76 4.76 0 0 0-.6.27 4.25 4.25 0 0 0-.69.42 3.29 3.29 0 0 0-.58.52c-.43.59-.78 1-1.05 1.39a4.11 4.11 0 0 0-.81 1.11c-.67 1.28-1.26 2.54-1.79 3.75s-1.12 2.53-1.79 3.91a7.63 7.63 0 0 0-.67 2.11 11.94 11.94 0 0 1-.52 2.1 8.08 8.08 0 0 1-1.07 2 11.75 11.75 0 0 0-1.16 2.08c-.21.44-.39.86-.56 1.27s-.33.83-.5 1.23-.35.84-.54 1.26-.41.88-.67 1.36a11.89 11.89 0 0 1-.94 1.72 7.17 7.17 0 0 0-.87 1.76 11.17 11.17 0 0 0-.56 1.75c-.14.6-.27 1.21-.38 1.81s-.25 1.19-.4 1.77a7.82 7.82 0 0 1-.62 1.6c-.05.08-.18.24-.36.48l-.64.79-.62.77a1.33 1.33 0 0 0-.27.43l-.19 2.27A2.84 2.84 0 0 1 305 121a2.76 2.76 0 0 0-.91 1.19 9.26 9.26 0 0 0-.22 1.56c-.06.63-.12 1.27-.18 1.93a16.37 16.37 0 0 1-.28 1.85 3.23 3.23 0 0 1-.59 1.33 5 5 0 0 1-.45.56l-.62.63a6.28 6.28 0 0 1-.56.52 1.15 1.15 0 0 1-.29.22.74.74 0 0 1-.38.2 1.88 1.88 0 0 1-.46.06 3.84 3.84 0 0 1-1.42-.26 1.24 1.24 0 0 1-.72-.66 7.88 7.88 0 0 1-.59-1.41c-.18-.55-.36-1.15-.52-1.79s-.31-1.25-.42-1.83-.22-1.09-.29-1.54-.15-.75-.19-.91l-.24-3.54a2.64 2.64 0 0 0-.13-.56c-.09-.29-.19-.6-.31-.93s-.22-.62-.3-.9a3.14 3.14 0 0 1-.14-.46 16.76 16.76 0 0 1-.56-2.93c-.09-1-.21-1.89-.36-2.81a.65.65 0 0 0-.22-.39l-.44-.5a9.43 9.43 0 0 0-.52-.81 4.26 4.26 0 0 0-.44-.57c0-.06 0-.26-.09-.61a3.74 3.74 0 0 0-.16-.64s0-.14-.06-.34a.88.88 0 0 0-.13-.39h-.58a1.48 1.48 0 0 0-1.15.58 6.67 6.67 0 0 0-.9 1.34c-.27.53-.52 1-.76 1.55a6 6 0 0 1-.65 1.19 1.91 1.91 0 0 1-.3.33 5.86 5.86 0 0 0-.49.5 7.74 7.74 0 0 0-.47.62 2.67 2.67 0 0 0-.35.63l-.27 2a.63.63 0 0 1-.14.29c-.08.14-.18.28-.28.44s-.2.3-.29.44a.77.77 0 0 0-.14.29 11.88 11.88 0 0 0-.23 1.35 2.86 2.86 0 0 1-.5 1.31.57.57 0 0 1-.19.31l-.25.15-.25.19a.91.91 0 0 0-.19.43 6.35 6.35 0 0 1-.17.73c-.1.31-.18.62-.27.94s-.18.61-.26.85a2.51 2.51 0 0 0-.11.49v2.11a1.68 1.68 0 0 1 0 .2 1.54 1.54 0 0 0 0 .19c-.13.46-.29 1-.5 1.77a13.25 13.25 0 0 1-.77 2.08 6.86 6.86 0 0 1-1.1 1.72 1.88 1.88 0 0 1-1.44.71 2 2 0 0 1-1.11-.44 8.54 8.54 0 0 1-1.21-1.08 10.13 10.13 0 0 1-1.06-1.33 6.24 6.24 0 0 1-.65-1.24 8.7 8.7 0 0 1-.47-1.58c-.1-.53-.18-1.07-.25-1.61s-.13-1.09-.21-1.66a15.64 15.64 0 0 0-.31-1.66 2.43 2.43 0 0 0-.36-.84c-.16-.26-.34-.52-.52-.78s-.34-.51-.5-.77a3.25 3.25 0 0 1-.35-.81 22.12 22.12 0 0 0-.69-2.13q-.37-1-.84-2l-.93-2c-.3-.66-.61-1.36-.91-2.1a2.45 2.45 0 0 0-.06-.43 1.11 1.11 0 0 1-.07-.31v-2a2.91 2.91 0 0 0-.28-.77q-.21-.42-.48-.87l-.54-.86a6.15 6.15 0 0 1-.42-.77 1.15 1.15 0 0 0-.1-.28c-.06-.15-.12-.28-.17-.38-.21-.82-.43-1.62-.67-2.39l-.75-2.31c-.26-.77-.5-1.55-.72-2.33a23.06 23.06 0 0 1-.52-2.45 2.58 2.58 0 0 1-.63-.86 5.28 5.28 0 0 1-.32-1l-.24-1.07c-.07-.35-.17-.7-.26-1-.37-.84-.7-1.68-1-2.5s-.66-1.62-1-2.39a24.73 24.73 0 0 0-1.25-2.25 13.79 13.79 0 0 0-1.69-2.14 2.15 2.15 0 0 0-1-.39c-.39 0-.75-.11-1.1-.19a2.85 2.85 0 0 1-.91-.37 1 1 0 0 1-.38-.9l-.08-1a1.08 1.08 0 0 1 .2-.76 2.38 2.38 0 0 1 .84-.37z" fill="#b1ada3" fill-rule="evenodd"/></svg>