<svg id="Layer_1" data-name="Layer 1" xmlns="http://www.w3.org/2000/svg" viewBox="0 0 209.03 61.03"><title>logo-horizontal</title><polygon points="106.5 37.67 106.5 48.39 111.86 48.39 111.86 47.32 107.58 47.32 107.58 37.67 106.5 37.67" style="fill:#aa9142"/><polygon points="119.99 37.67 119.99 48.39 125.35 48.39 125.35 47.32 121.06 47.32 121.06 37.67 119.99 37.67" style="fill:#aa9142"/><polygon points="133.48 37.67 133.48 48.39 139.21 48.39 139.21 47.38 134.55 47.38 134.55 43.3 138.27 43.3 138.27 42.3 134.55 42.3 134.55 38.68 139.21 38.68 139.21 37.67 133.48 37.67" style="fill:#aa9142"/><path d="M152.6,48.55a5.52,5.52,0,1,1,3.9-9.43l-.75.77a4.5,4.5,0,1,0,0,6.25l.75.77a5.51,5.51,0,0,1-3.93,1.64" style="fill:#aa9142"/><polygon points="163.64 37.67 163.64 38.68 166.09 38.68 166.09 48.39 167.16 48.39 167.16 38.68 169.62 38.68 169.62 37.67 163.64 37.67" style="fill:#aa9142"/><polygon points="176.82 37.67 176.82 38.59 178.12 38.59 178.12 47.47 176.82 47.47 176.82 48.39 180.48 48.39 180.48 47.47 179.19 47.47 179.19 38.59 180.48 38.59 180.48 37.67 176.82 37.67" style="fill:#aa9142"/><path d="M191,48.39l-3.47-10.72h1.15l2.64,8.58c.1.38.18.73.2.8a4.52,4.52,0,0,1,.18-.8l2.62-8.58h1.17L192,48.39Z" style="fill:#aa9142"/><polygon points="203.3 37.67 203.3 48.39 209.03 48.39 209.03 47.38 204.38 47.38 204.38 43.3 208.1 43.3 208.1 42.3 204.38 42.3 204.38 38.68 209.03 38.68 209.03 37.67 203.3 37.67" style="fill:#aa9142"/><path d="M75.73,48.55a5.52,5.52,0,1,1,3.89-9.43l-.75.77a4.46,4.46,0,1,0-3.14,7.64,4.46,4.46,0,0,0,3.17-1.39l.75.77a5.51,5.51,0,0,1-3.92,1.64" style="fill:#aa9142"/><path d="M97.09,43a4.45,4.45,0,1,0-4.44,4.51A4.37,4.37,0,0,0,97.09,43m-10,0a5.52,5.52,0,1,1,5.52,5.52A5.53,5.53,0,0,1,87.13,43" style="fill:#aa9142"/><path d="M70.21,27.74,77,15.51v-.1H71.3a.44.44,0,0,1-.43-.43V13.09a.45.45,0,0,1,.43-.43h9.51a.45.45,0,0,1,.43.43v.3l-6.69,12.4v0h5.81a.44.44,0,0,1,.43.44v1.88a.44.44,0,0,1-.43.44H70.64a.45.45,0,0,1-.43-.44Z" style="fill:#aa9142"/><path d="M83.47,28l7.08-15.32a.42.42,0,0,1,.39-.25h.22a.4.4,0,0,1,.39.25l7,15.32a.41.41,0,0,1-.39.59h-2a.66.66,0,0,1-.66-.46l-1.11-2.45H87.61L86.5,28.13a.69.69,0,0,1-.66.46h-2A.41.41,0,0,1,83.47,28Zm9.83-4.85-2.27-5H91l-2.23,5Z" style="fill:#aa9142"/><path d="M108.36,12.43a7.71,7.71,0,0,1,5.51,2.12.43.43,0,0,1,0,.64l-1.39,1.43a.37.37,0,0,1-.57,0,5.38,5.38,0,0,0-3.5-1.34,5.15,5.15,0,0,0-5.07,5.3,5.15,5.15,0,0,0,5.09,5.25,5.45,5.45,0,0,0,3.48-1.29.42.42,0,0,1,.57,0L113.91,26a.43.43,0,0,1,0,.62,7.81,7.81,0,0,1-5.53,2.2,8.19,8.19,0,1,1,0-16.38Z" style="fill:#aa9142"/><path d="M124.17,13.09a.44.44,0,0,1,.44-.43h5.21c2.7,0,4.8,1.82,4.8,4.21a4.34,4.34,0,0,1-2.51,3.62,4.07,4.07,0,0,1,3,3.71c0,2.54-2.18,4.39-5,4.39h-5.5a.44.44,0,0,1-.44-.44Zm5.37,6.26a2,2,0,0,0,2-2.05,1.86,1.86,0,0,0-2-1.93h-2.43v4Zm.32,6.55a2,2,0,0,0,2-2.07,2.2,2.2,0,0,0-2.32-2h-2.48v4Z" style="fill:#aa9142"/><path d="M139.35,13.09a.43.43,0,0,1,.43-.43h6.51a4.93,4.93,0,0,1,5,4.89,5,5,0,0,1-3.37,4.6L151,27.93a.43.43,0,0,1-.39.66h-2.39a.39.39,0,0,1-.36-.21l-3-6h-2.52v5.8a.46.46,0,0,1-.44.44h-2.09a.44.44,0,0,1-.43-.44ZM146,19.92a2.32,2.32,0,0,0,2.25-2.32A2.27,2.27,0,0,0,146,15.39h-3.71v4.53Z" style="fill:#aa9142"/><path d="M162.67,12.43a8.19,8.19,0,1,1-8.17,8.22A8.18,8.18,0,0,1,162.67,12.43Zm0,13.43a5.24,5.24,0,1,0-5.21-5.21A5.25,5.25,0,0,0,162.67,25.86Z" style="fill:#aa9142"/><path d="M172.65,13.21a.4.4,0,0,1,.41-.55h2.1a.48.48,0,0,1,.41.32l2.36,9.08H178l3.62-9.38a.38.38,0,0,1,.39-.25h.41a.37.37,0,0,1,.38.25l3.64,9.38h.09L188.88,13a.45.45,0,0,1,.4-.32h2.1a.4.4,0,0,1,.41.55l-4.3,15.29a.44.44,0,0,1-.41.31h-.37a.37.37,0,0,1-.38-.25l-4.07-10.3h-.12l-4,10.3a.39.39,0,0,1-.39.25h-.37a.44.44,0,0,1-.41-.31Z" style="fill:#aa9142"/><path d="M195.59,12.84a.43.43,0,0,1,.43-.41h.57l9.46,10.06h0v-9.4a.43.43,0,0,1,.43-.43h2.09a.45.45,0,0,1,.43.43V28.4a.42.42,0,0,1-.43.41h-.55l-9.5-10.44h0v9.78a.44.44,0,0,1-.43.44H196a.45.45,0,0,1-.43-.44Z" style="fill:#aa9142"/><path d="M49.65,10.22,35.15,1.84a13.78,13.78,0,0,0-13.76,0L6.88,10.22A13.81,13.81,0,0,0,0,22.14V38.89A13.81,13.81,0,0,0,6.88,50.81l14.51,8.37a13.72,13.72,0,0,0,13.76,0l14.51-8.37a13.81,13.81,0,0,0,6.88-11.92V22.15A13.8,13.8,0,0,0,49.65,10.22ZM42.26,51.13a.45.45,0,0,1,.22.83L33.93,56.9a11.32,11.32,0,0,1-11.26,0L14.12,52a.44.44,0,0,1,.22-.83ZM54.07,31.57c-.09,3.24-1,5.69-2.56,7.29a7.19,7.19,0,0,1-4.6,2H30.49a.22.22,0,0,1-.13-.4L53.85,22.85a.14.14,0,0,1,.22.11ZM23.64,42.4a.55.55,0,0,0-.19.61.56.56,0,0,0,.52.38h23a9.77,9.77,0,0,0,6.33-2.73,10.24,10.24,0,0,0,.76-.85,11.56,11.56,0,0,1-3.47,7.11,5.84,5.84,0,0,1-4.06,1.62l-37.94.1h0a.63.63,0,0,1-.32-.1.61.61,0,0,1-.3-.5.62.62,0,0,1,.25-.53l10.29-7.92h0l32.3-24.87a.5.5,0,0,1,.7.07l.17.22a5.17,5.17,0,0,1-1.16,7.12ZM14.34,9.77a.44.44,0,0,1-.22-.83L22.67,4A11.25,11.25,0,0,1,33.93,4l8.55,4.93a.45.45,0,0,1-.22.83ZM2.53,29.33c.09-3.24,1-5.69,2.55-7.29a7.23,7.23,0,0,1,4.61-2H26.1a.22.22,0,0,1,.14.4L2.75,38.05a.14.14,0,0,1-.22-.11ZM33,18.51a.57.57,0,0,0,.19-.62.56.56,0,0,0-.52-.37h-23a9.66,9.66,0,0,0-6.33,2.73,8.72,8.72,0,0,0-.76.84A11.59,11.59,0,0,1,6.06,14a5.81,5.81,0,0,1,4.05-1.62l37.94-.1h0a.63.63,0,0,1,.32.1.61.61,0,0,1,.3.5.62.62,0,0,1-.25.53L38.14,21.32v0L5.84,46.17a.5.5,0,0,1-.7-.07L5,45.88a5.17,5.17,0,0,1,1.15-7.12Z" style="fill:#aa9142"/></svg>