<svg id="Layer_1" data-name="Layer 1" xmlns="http://www.w3.org/2000/svg" viewBox="0 0 395.36 127.6"><defs><style>.cls-1{fill:#c5c0af}</style></defs><path class="cls-1" d="M146.35 35.28a.71.71 0 0 1 .73-1h3.76a.84.84 0 0 1 .74.57l4.25 16.3h.17l6.5-16.83a.65.65 0 0 1 .69-.45h.74a.65.65 0 0 1 .69.45l6.54 16.83h.16l4.17-16.3a.83.83 0 0 1 .74-.57H180a.71.71 0 0 1 .73 1L173 62.74a.79.79 0 0 1-.74.57h-.65a.7.7 0 0 1-.7-.45l-7.31-18.51h-.21l-7.23 18.51a.68.68 0 0 1-.69.45h-.66a.79.79 0 0 1-.73-.57zM198 33.89a14.71 14.71 0 1 1-14.67 14.75A14.68 14.68 0 0 1 198 33.89zM198 58a9.4 9.4 0 1 0-9.35-9.36A9.42 9.42 0 0 0 198 58zM230.74 33.89a14.71 14.71 0 1 1-14.67 14.75 14.69 14.69 0 0 1 14.67-14.75zm0 24.11a9.4 9.4 0 1 0-9.36-9.36 9.41 9.41 0 0 0 9.36 9.36zM250.81 35.08a.77.77 0 0 1 .73-.78h9.69a14.3 14.3 0 1 1 0 28.6h-9.69a.76.76 0 0 1-.73-.77zm9.93 22.84a9 9 0 0 0 9.19-9.36 9 9 0 0 0-9.19-9.32h-4.66v18.68zM278.23 35.28a.71.71 0 0 1 .73-1h3.76a.83.83 0 0 1 .74.57l4.25 16.3h.16l6.5-16.83a.66.66 0 0 1 .7-.45h.73a.67.67 0 0 1 .7.45l6.5 16.85h.17l4.17-16.3a.82.82 0 0 1 .73-.57h3.76a.72.72 0 0 1 .74 1l-7.73 27.46a.79.79 0 0 1-.73.57h-.66a.69.69 0 0 1-.69-.45l-7.32-18.51h-.2L288 62.86a.7.7 0 0 1-.7.45h-.65a.79.79 0 0 1-.74-.57zM312.56 61.84l12.71-27.5a.72.72 0 0 1 .69-.45h.41a.7.7 0 0 1 .7.45l12.58 27.5a.72.72 0 0 1-.65 1.06h-3.6a1.16 1.16 0 0 1-1.18-.81l-2-4.42H320l-2 4.42a1.25 1.25 0 0 1-1.19.81h-3.55a.72.72 0 0 1-.7-1.06zm17.65-8.71l-4.08-9H326l-4 9zM343.37 35.08a.78.78 0 0 1 .78-.78h11.69a8.85 8.85 0 0 1 8.91 8.78c0 3.76-2.5 6.83-6.05 8.26l5.59 10.38a.77.77 0 0 1-.69 1.18h-4.29a.68.68 0 0 1-.65-.37l-5.44-10.83h-4.53v10.43a.81.81 0 0 1-.78.77h-3.76a.78.78 0 0 1-.78-.77zm12 12.25a4.16 4.16 0 0 0 4-4.16 4.07 4.07 0 0 0-4-4h-6.66v8.13zM370.59 35.08a.77.77 0 0 1 .74-.78H381a14.3 14.3 0 1 1 0 28.6h-9.68a.77.77 0 0 1-.74-.77zm9.93 22.84a9 9 0 0 0 9.2-9.36 9 9 0 0 0-9.2-9.32h-4.66v18.68zM148.05 74.27a.77.77 0 0 1 .78-.78h9.35c4.86 0 8.63 3.27 8.63 7.56 0 3.15-2.58 5.59-4.5 6.5 2.17.69 5.31 2.9 5.31 6.66 0 4.57-3.92 7.88-8.91 7.88h-9.88a.77.77 0 0 1-.78-.77zm9.64 11.23a3.5 3.5 0 0 0 3.52-3.68 3.34 3.34 0 0 0-3.52-3.47h-4.37v7.15zm.57 11.77a3.64 3.64 0 0 0 3.68-3.72c0-2-2-3.55-4.17-3.55h-4.45v7.27zM173.26 74.27a.78.78 0 0 1 .78-.78h11.69a8.84 8.84 0 0 1 8.9 8.78c0 3.76-2.49 6.83-6 8.26l5.6 10.38a.77.77 0 0 1-.7 1.18h-4.33a.69.69 0 0 1-.65-.36l-5.44-10.84h-4.53v10.43a.8.8 0 0 1-.78.77H174a.77.77 0 0 1-.78-.77zm12 12.25a4.16 4.16 0 0 0 4-4.16 4.07 4.07 0 0 0-4-4h-6.66v8.13zM213.11 73.08a14.71 14.71 0 1 1-14.67 14.75 14.69 14.69 0 0 1 14.67-14.75zm0 24.11a9.4 9.4 0 1 0-9.36-9.36 9.42 9.42 0 0 0 9.36 9.36zM230.44 74.47a.71.71 0 0 1 .73-1h3.76a.83.83 0 0 1 .74.57l4.25 16.3h.16l6.5-16.83a.67.67 0 0 1 .7-.45h.72a.66.66 0 0 1 .69.45l6.54 16.83h.17l4.16-16.3a.84.84 0 0 1 .74-.57h3.76a.71.71 0 0 1 .73 1l-7.72 27.46a.79.79 0 0 1-.73.57h-.66a.68.68 0 0 1-.69-.45l-7.32-18.51h-.2l-7.23 18.51a.7.7 0 0 1-.7.45h-.65a.79.79 0 0 1-.74-.57zM269.59 73.82a.77.77 0 0 1 .78-.74h1l17 18.06V74.27a.78.78 0 0 1 .78-.78H293a.8.8 0 0 1 .77.78v27.49a.76.76 0 0 1-.77.74h-1l-17.09-18.75h-.05v17.57a.76.76 0 0 1-.77.77h-3.72a.8.8 0 0 1-.78-.77zM63.8-1a63.8 63.8 0 1 0 63.8 63.8A63.87 63.87 0 0 0 63.8-1zM41.61 71.12a18.05 18.05 0 0 0-14.44-4.3A20.26 20.26 0 0 1 16.42 57l1.06-1.65c2.2-3.43 7.19-7 10-8.73 4.11 1.15 17.49 5.87 23.42 19.53 5.04 11.63 6.89 24.85 6.15 44.05-2.15-2.55-4.2-5.23-5-7.17-.68-1.73-1.27-3.2-1.68-4.12-1.41-3.13-3.6-13-3.45-18C47 77.75 45 74 41.61 71.12zm-7.2 6.95a14.18 14.18 0 0 1-4.2-8.36 15.27 15.27 0 0 1 9.39 3.75c2.62 2.24 4.34 5.17 4.27 7.3v.3c-3.93.08-7.12-.91-9.46-2.99zm42.32-12C82.66 52.45 96 47.73 100.15 46.58c2.78 1.74 7.77 5.3 10 8.73l1.32 2.06a17 17 0 0 1-10.39 9.1 18 18 0 0 0-15 4.22c-3.39 2.9-5.43 6.64-5.34 9.74.15 5-2 14.93-3.45 18.06-.41.91-1 2.38-1.68 4.11a36 36 0 0 1-5 7.63c-.8-19.23 1.05-32.44 6.12-44.12zm7.08 15v-.72c-.07-2.13 1.65-5.07 4.27-7.31a15.24 15.24 0 0 1 9.63-3.75 14.93 14.93 0 0 1-4.47 8.77c-2.36 2.08-5.55 3.09-9.43 3zm-5.35 22.68c.67-1.68 1.23-3.1 1.63-4 1.25-2.78 3-10 3.55-15.62h.61a16.12 16.12 0 0 0 11-3.8 18 18 0 0 0 5.47-10.58 20.92 20.92 0 0 0 12.42-9.05l3.54 15.62c-2.06 4.37-18.07 36.38-50.29 46.69 4.99-5.43 10.5-15.31 12.07-19.27zm22.25-60.9s-19.3 3.73-27.18 21.88c-5 11.62-7.27 24.94-6.47 45.68l-3.24 8-3.28-8c.8-20.74-1.42-34.06-6.47-45.68-7.88-18.16-27.18-21.89-27.18-21.89s-8.76 5-12.35 10.58l.24-5.19S21 41.05 27 38.46c0 0 29.94 14.88 36.63 15.62H64c6.68-.74 36.63-15.62 36.63-15.62 6 2.59 12.16 9.77 12.16 9.77l.25 5.19c-3.57-5.58-12.33-10.58-12.33-10.58zm-86.13 17.2a23 23 0 0 0 12.57 10 17.19 17.19 0 0 0 5.19 10.27 16 16 0 0 0 11 3.81h.61c.5 5.71 2.31 13.19 3.59 16 .4.88 1 2.31 1.63 4 1.55 3.9 7.53 13.54 12.6 19h-.14C28.92 113 12.92 80.73 10.89 76.35zm64.66 61.21c27.85-14.78 40.68-43.7 40.83-44l.22-.52-3.29-14.8-.41-8.68-.24-5.19v-1.21l-.79-.91c-.27-.32-6.78-7.82-13.43-10.7l-1.49-.64-1.45.72c-11.31 5.57-30.64 14.55-35.4 15.25-4.79-.7-24.07-9.68-35.28-15.25l-1.46-.72-1.48.64C18.92 38.13 12.41 45.63 12.14 46l-.79.91v1.21l-.25 5.19-.4 8.68L7.31 76.7l.21.51c.15.34 12.78 29.13 40.46 43.94a60.45 60.45 0 1 1 31.26.11z" transform="translate(0 1)"/></svg>